<?xml version="1.0" standalone="no"?>
<!DOCTYPE svg PUBLIC "-//W3C//DTD SVG 20010904//EN"
 "http://www.w3.org/TR/2001/REC-SVG-20010904/DTD/svg10.dtd">
<svg version="1.0" xmlns="http://www.w3.org/2000/svg"
 width="513.000000pt" height="513.000000pt" viewBox="0 0 513.000000 513.000000"
 preserveAspectRatio="xMidYMid meet">
<metadata>
Created by potrace 1.14, written by Peter Selinger 2001-2017
</metadata>
<g transform="translate(0.000000,513.000000) scale(0.100000,-0.100000)"
fill="#000000" stroke="none">
<path d="M1958 5121 c23 -14 -9 -29 -60 -27 -27 1 -48 -2 -48 -6 0 -5 -7 -8
-15 -8 -8 0 -15 -5 -15 -10 0 -7 -8 -6 -22 1 -22 12 -22 11 -8 -7 8 -10 11
-16 6 -12 -5 4 -17 3 -27 -2 -12 -7 -20 -6 -24 1 -5 7 -14 3 -26 -10 -11 -11
-26 -18 -34 -15 -8 4 -15 1 -15 -6 0 -6 -4 -8 -10 -5 -5 3 -10 1 -10 -5 0 -7
-7 -9 -16 -6 -8 3 -12 2 -9 -3 3 -5 1 -12 -5 -16 -5 -3 -10 -1 -10 6 0 8 -4 8
-15 -1 -8 -7 -21 -10 -29 -7 -16 6 -40 -16 -30 -26 4 -4 -3 -4 -15 -2 -13 2
-24 -2 -27 -10 -3 -7 -14 -12 -25 -10 -12 3 -17 0 -13 -7 5 -8 1 -9 -10 -5
-11 5 -15 3 -10 -5 5 -8 2 -9 -10 -5 -10 4 -15 3 -11 -3 6 -10 -7 -14 -31 -11
-7 1 -15 -6 -18 -15 -4 -9 -12 -14 -22 -10 -8 3 -12 2 -9 -4 3 -6 -1 -10 -10
-10 -10 0 -13 -5 -9 -12 5 -8 0 -7 -11 2 -10 8 -16 10 -12 4 3 -6 -6 -17 -21
-25 -15 -8 -30 -18 -34 -24 -5 -6 -8 -5 -8 3 0 6 -4 12 -10 12 -5 0 -10 -6
-10 -13 0 -19 -38 -49 -44 -34 -2 7 -5 4 -5 -5 -1 -12 -6 -15 -18 -11 -11 4
-14 3 -9 -5 7 -12 -5 -16 -31 -13 -8 1 -10 -5 -7 -14 4 -11 2 -14 -9 -10 -9 4
-16 -1 -20 -14 -4 -15 -10 -19 -23 -14 -13 5 -15 3 -9 -7 6 -10 4 -12 -8 -7
-9 3 -19 1 -23 -5 -5 -7 -2 -8 6 -3 9 6 11 4 6 -4 -5 -7 -15 -10 -23 -7 -8 3
-11 2 -8 -4 7 -11 -32 -33 -44 -25 -5 3 -8 -6 -6 -20 1 -14 0 -23 -3 -20 -3 2
-12 -1 -21 -8 -14 -11 -15 -10 -1 8 8 11 -12 -8 -44 -43 -33 -35 -64 -61 -72
-58 -8 3 -11 -2 -9 -13 3 -15 -1 -18 -18 -14 -18 4 -19 3 -7 -6 13 -9 12 -11
-3 -11 -11 0 -15 -4 -11 -12 5 -7 2 -9 -9 -5 -11 4 -15 1 -12 -13 3 -14 -1
-17 -12 -13 -12 5 -14 3 -8 -6 5 -10 1 -12 -16 -7 -13 3 -18 3 -11 0 17 -8 15
-27 -3 -20 -8 3 -14 2 -14 -2 1 -4 1 -16 0 -26 -1 -20 -1 -20 -16 0 -15 18
-15 18 -8 0 4 -13 3 -17 -5 -12 -8 5 -10 1 -5 -10 4 -12 3 -15 -5 -10 -7 4
-12 1 -12 -9 0 -8 -7 -18 -15 -21 -8 -4 -15 -12 -15 -20 0 -8 -5 -14 -11 -14
-5 0 -7 5 -3 12 4 7 3 8 -4 4 -9 -5 -9 -13 -2 -26 9 -16 8 -18 -6 -13 -12 4
-15 3 -10 -5 4 -7 1 -12 -8 -12 -9 0 -16 -4 -16 -10 0 -5 -10 -19 -22 -31 -13
-12 -17 -18 -10 -14 11 6 12 3 3 -14 -7 -11 -16 -21 -21 -21 -6 0 -10 -7 -10
-15 0 -8 -5 -15 -11 -15 -5 0 -7 -6 -3 -12 5 -9 2 -8 -9 1 -15 12 -17 12 -11
-4 6 -14 4 -16 -7 -10 -8 4 -11 4 -6 0 4 -5 0 -19 -8 -32 -9 -13 -13 -29 -9
-35 4 -7 3 -8 -4 -4 -7 4 -12 1 -12 -8 0 -8 -8 -21 -17 -28 -10 -7 -25 -22
-33 -32 -13 -18 -13 -19 0 -11 12 7 13 6 3 -7 -7 -8 -9 -19 -5 -24 4 -4 -1 -3
-10 4 -14 12 -16 10 -11 -9 5 -17 3 -20 -7 -14 -9 5 -11 4 -6 -3 8 -13 -17
-67 -35 -78 -8 -5 -9 -3 -4 6 5 8 4 11 -3 6 -6 -4 -9 -13 -5 -21 3 -8 1 -15
-5 -15 -5 0 -8 -14 -7 -30 2 -25 0 -28 -11 -19 -12 10 -13 8 -8 -6 6 -14 4
-16 -7 -10 -12 7 -12 6 -1 -7 10 -13 10 -17 -3 -22 -8 -3 -15 -9 -14 -13 3
-20 -2 -34 -10 -28 -6 3 -8 -4 -6 -15 2 -12 -1 -20 -10 -20 -8 0 -12 -8 -10
-20 2 -11 0 -20 -5 -20 -4 0 -7 -12 -5 -26 1 -16 -6 -35 -21 -51 -13 -14 -21
-30 -18 -35 3 -5 0 -16 -8 -25 -9 -12 -9 -15 -1 -9 19 11 15 -5 -4 -20 -14
-10 -15 -13 -4 -14 11 0 10 -4 -5 -16 -10 -8 -12 -12 -4 -8 12 6 13 5 4 -7 -6
-8 -10 -22 -9 -31 2 -10 -1 -18 -6 -18 -5 0 -9 -5 -9 -11 0 -5 4 -8 8 -5 5 3
9 -1 9 -9 0 -8 -4 -12 -8 -9 -11 6 -22 -34 -13 -48 5 -9 2 -8 -9 1 -16 13 -17
12 -8 -12 6 -16 7 -29 1 -32 -5 -3 -6 -13 -3 -22 4 -10 2 -14 -4 -10 -7 5 -9
0 -6 -13 3 -11 1 -20 -4 -20 -5 0 -10 -7 -10 -15 0 -8 4 -15 8 -15 4 0 5 -9 2
-20 -3 -11 -9 -17 -14 -14 -5 3 -9 -193 -9 -461 0 -411 2 -466 15 -461 8 3 16
0 16 -7 1 -7 3 -25 4 -42 2 -16 4 -30 5 -30 4 0 12 -42 13 -72 1 -17 5 -34 9
-38 4 -4 4 -13 2 -20 -3 -7 -1 -16 5 -19 6 -4 7 -14 4 -23 -4 -11 -3 -14 5 -9
8 5 12 0 12 -14 0 -12 4 -18 10 -15 14 9 12 -8 -2 -24 -10 -11 -10 -13 -1 -7
8 4 13 1 13 -8 0 -9 6 -16 13 -16 8 0 7 -4 -3 -10 -12 -7 -12 -10 -1 -10 8 0
11 -6 7 -16 -3 -8 -2 -13 3 -10 5 3 12 -1 15 -10 3 -8 2 -12 -4 -9 -6 3 -10 1
-10 -4 0 -6 3 -11 8 -11 4 0 13 -9 20 -21 11 -17 11 -20 0 -13 -10 6 -10 4 1
-9 7 -9 10 -17 6 -17 -5 0 -1 -8 7 -17 25 -30 33 -47 17 -38 -8 5 -5 -2 6 -14
11 -13 19 -26 19 -30 -3 -15 9 -30 19 -24 6 3 7 1 3 -5 -4 -7 -1 -12 6 -12 9
0 9 -3 -2 -10 -13 -8 -13 -10 2 -10 11 0 15 -5 12 -15 -4 -8 -1 -15 5 -15 6 0
11 -9 11 -21 0 -11 7 -27 15 -36 8 -8 13 -18 10 -23 -3 -4 2 -11 11 -14 8 -3
13 -10 10 -15 -3 -5 1 -12 10 -15 10 -4 14 -14 11 -26 -3 -11 0 -18 6 -17 6 1
16 -8 22 -21 5 -12 13 -22 17 -22 5 0 8 -7 8 -16 0 -8 4 -12 10 -9 9 5 15 -14
12 -37 -1 -3 6 -12 16 -20 16 -12 16 -11 2 7 -14 19 -14 19 3 6 14 -11 15 -16
5 -29 -10 -13 -10 -14 0 -8 7 4 12 2 12 -4 0 -6 4 -9 9 -5 6 3 8 -3 6 -14 -2
-14 1 -18 11 -14 12 5 19 -7 15 -29 0 -5 6 -8 15 -8 14 0 14 -3 4 -15 -11 -13
-10 -14 3 -9 10 3 21 -2 29 -15 7 -12 20 -21 28 -21 13 0 13 -1 0 -10 -13 -8
-12 -10 3 -10 10 0 17 -8 17 -21 0 -11 4 -18 9 -15 5 3 12 -1 15 -10 10 -25 7
-27 -11 -13 -16 13 -17 12 -4 -4 9 -11 18 -14 25 -8 7 6 16 3 26 -7 13 -14 12
-15 -4 -9 -11 4 1 -12 25 -35 26 -25 47 -39 51 -33 8 10 13 -9 8 -30 -1 -5 2
-7 6 -3 9 10 45 -32 38 -44 -3 -4 -2 -7 3 -6 4 1 18 -2 31 -6 19 -6 21 -10 11
-22 -9 -12 -9 -13 3 -9 20 8 20 -25 0 -47 -10 -12 -11 -18 -4 -18 7 0 12 5 12
12 0 6 2 9 5 6 9 -8 -6 -38 -16 -32 -5 3 -9 -1 -10 -8 0 -7 -2 -23 -3 -35 -1
-12 0 -22 3 -21 22 2 34 -6 51 -34 10 -17 16 -36 13 -41 -3 -6 -1 -7 5 -3 6 3
13 2 17 -4 3 -5 17 -10 31 -10 15 0 24 -6 24 -16 0 -8 4 -12 10 -9 5 3 10 -2
10 -12 0 -15 2 -16 10 -3 8 13 10 12 10 -3 0 -10 5 -15 10 -12 6 3 10 1 10 -5
0 -6 5 -8 12 -4 7 5 9 2 5 -9 -4 -12 -2 -14 10 -10 12 5 14 3 8 -7 -6 -9 -4
-11 5 -5 8 5 18 1 27 -10 7 -11 13 -13 13 -6 0 7 5 9 11 5 6 -3 9 -14 6 -23
-2 -10 1 -18 9 -18 7 0 11 5 8 11 -3 6 4 0 16 -14 12 -14 18 -18 14 -10 -6 12
-4 13 7 2 17 -16 43 -16 33 1 -5 7 0 6 11 -3 11 -9 16 -10 11 -2 -4 7 -1 12 8
12 9 0 16 5 16 10 0 6 5 10 11 10 5 0 7 -5 3 -12 -4 -7 -3 -8 4 -4 6 4 9 13 6
20 -8 20 12 29 37 15 15 -8 19 -8 15 0 -11 18 10 13 25 -6 12 -14 12 -16 0 -8
-10 5 -12 4 -7 -4 5 -8 12 -9 20 -2 9 7 20 3 39 -15 16 -15 27 -20 28 -12 0 7
4 5 8 -5 4 -10 9 -17 12 -15 3 2 14 -4 24 -12 11 -9 16 -10 11 -2 -4 6 -2 12
3 12 6 0 11 -4 11 -10 0 -5 10 -14 21 -21 15 -8 19 -8 15 0 -12 19 2 12 24
-11 11 -12 20 -16 20 -9 0 7 5 9 10 6 6 -4 8 -10 5 -14 -2 -5 7 -7 20 -5 14 1
28 -3 32 -8 4 -7 1 -8 -7 -3 -8 5 -11 4 -7 -2 4 -6 18 -8 31 -6 16 3 30 -2 41
-15 10 -11 25 -18 36 -15 12 3 19 0 19 -8 0 -11 2 -11 10 1 8 12 10 12 10 -5
0 -17 2 -17 10 -5 9 13 10 13 10 0 0 -10 11 -17 32 -18 17 -2 38 -8 47 -15 11
-9 13 -9 8 0 -4 6 -3 14 3 18 5 3 10 -1 10 -9 0 -9 7 -13 20 -11 11 2 20 0 20
-5 0 -5 7 -7 15 -4 8 4 21 2 28 -4 6 -6 29 -10 51 -10 22 0 42 -6 47 -14 5 -7
9 -9 9 -5 0 4 10 3 21 -4 15 -7 19 -8 15 0 -5 7 -1 9 8 5 9 -3 16 -9 16 -13 0
-4 10 -7 23 -8 67 -1 78 -3 71 -15 -5 -8 -2 -9 12 -4 10 5 24 8 29 8 49 -5
124 -4 133 2 6 3 13 2 16 -3 4 -5 18 -8 31 -5 14 2 25 0 25 -6 0 -12 179 -8
235 4 17 4 35 7 40 7 6 0 36 -1 67 -2 37 -1 64 3 75 12 11 9 14 10 9 2 -4 -8
-1 -13 9 -13 9 0 14 4 10 9 -3 6 3 10 12 10 10 0 34 4 53 9 20 5 43 8 53 6 9
-1 17 2 17 8 0 6 6 6 15 -2 12 -10 16 -9 20 2 4 9 18 14 40 13 19 -1 32 1 30
5 -7 12 37 26 80 25 23 0 45 6 53 15 12 13 13 13 6 0 -5 -10 -1 -9 14 3 11 11
26 16 31 12 6 -3 11 0 11 7 0 11 2 10 9 0 6 -11 10 -10 15 3 3 10 12 15 21 11
8 -3 15 -1 15 4 0 5 7 6 17 3 12 -5 14 -3 8 7 -6 10 -4 12 9 7 10 -4 19 -1 23
8 4 12 9 13 18 5 10 -8 19 -5 34 11 15 16 21 18 21 8 0 -11 2 -12 9 -1 4 8 12
14 17 15 5 1 8 6 6 11 -2 5 4 4 12 -4 12 -9 16 -10 16 0 0 7 7 10 16 6 10 -4
13 -2 8 6 -5 8 -2 9 10 5 11 -4 15 -3 11 4 -4 6 2 13 14 16 11 3 19 9 16 13
-3 5 3 7 12 6 10 -2 24 4 31 13 8 9 11 10 7 4 -8 -16 0 -16 26 -3 12 7 19 7
19 1 0 -6 8 -7 17 -4 13 5 15 2 10 -11 -5 -11 -3 -15 5 -10 8 5 9 1 4 -12 -4
-10 -4 -15 0 -11 4 4 13 -1 21 -11 9 -10 11 -11 7 -2 -6 12 -5 13 7 3 16 -13
64 -12 77 2 4 4 1 5 -7 0 -10 -6 -12 -4 -7 4 5 7 14 10 22 7 8 -3 14 -1 14 4
0 6 -6 10 -12 10 -7 1 2 7 21 15 40 18 44 18 35 3 -5 -7 -3 -8 5 -4 7 5 10 15
7 23 -4 10 -2 13 8 10 16 -6 40 16 29 26 -3 4 3 7 13 7 11 0 26 6 33 13 11 10
13 9 7 -3 -4 -8 1 -5 10 8 9 12 23 22 31 22 7 0 13 7 11 16 -2 10 5 18 15 20
10 1 28 11 40 21 15 13 19 13 12 3 -6 -9 -2 -7 9 5 10 11 24 19 32 17 8 -2 12
5 9 18 -2 11 0 20 5 20 6 0 6 9 1 23 -4 12 -7 30 -5 40 1 9 -2 15 -7 11 -5 -3
-7 -11 -3 -17 3 -7 -1 -4 -9 5 -8 10 -18 14 -22 10 -5 -4 -5 -1 -1 6 4 7 12
10 17 7 5 -3 6 1 3 9 -3 9 -11 13 -16 10 -6 -4 -5 3 1 15 7 11 16 21 22 21 6
0 7 6 3 12 -6 10 -4 10 8 0 13 -10 18 -10 24 -1 4 8 3 9 -4 5 -7 -4 -12 -1
-12 9 0 9 5 13 10 10 6 -3 10 -1 10 5 0 6 5 8 12 4 7 -5 9 -2 5 9 -4 12 -2 14
10 10 12 -5 14 -3 8 8 -8 12 -6 12 8 0 10 -8 17 -9 17 -3 0 6 9 14 21 17 11 4
18 9 16 12 -3 2 -16 -1 -29 -8 -21 -11 -22 -11 -9 4 7 10 20 17 28 17 8 0 11
5 7 12 -5 7 -2 9 9 5 11 -4 20 3 29 23 7 16 16 26 20 24 4 -3 8 2 8 11 0 11 5
15 14 12 10 -4 13 0 11 14 -4 19 31 66 41 56 2 -2 -2 -10 -11 -17 -8 -7 -15
-17 -15 -23 0 -5 9 2 21 17 11 14 17 30 14 36 -6 9 8 14 28 11 4 -1 3 8 -3 19
-8 16 -8 20 2 18 7 -2 12 3 10 10 -2 10 2 10 17 3 16 -9 18 -8 14 8 -3 11 3
24 15 32 10 8 22 24 26 37 4 12 12 22 17 22 6 0 7 -5 3 -12 -4 -7 -3 -8 5 -4
6 4 9 11 6 16 -3 5 2 15 11 24 8 9 12 21 8 27 -4 8 -3 9 4 5 7 -4 12 -1 12 8
0 8 4 18 10 21 6 4 7 -1 4 -12 -5 -14 -4 -15 4 -4 6 8 9 23 7 33 -4 17 6 23
29 19 5 -1 4 4 -2 12 -12 14 -7 27 10 27 5 0 6 -5 2 -12 -4 -6 -3 -8 4 -4 6 3
9 16 7 27 -3 15 0 19 10 15 17 -6 30 10 15 19 -7 5 -5 12 7 22 10 8 12 12 6 8
-9 -4 -11 -1 -7 9 3 9 10 14 14 11 4 -3 10 2 13 9 3 8 1 17 -6 20 -7 2 -4 5 7
5 13 1 17 6 13 20 -4 15 -1 18 12 14 9 -4 13 -3 9 2 -4 4 -1 14 7 21 8 8 12
21 8 29 -3 11 -1 13 10 10 11 -5 14 1 11 25 -3 26 -1 31 12 26 9 -3 12 -2 9 5
-4 5 1 21 10 36 12 18 13 23 4 18 -8 -3 -5 1 5 9 12 10 15 16 7 16 -9 0 -6 6
6 18 10 9 13 13 6 8 -10 -6 -12 -5 -7 7 3 8 12 18 20 21 9 3 13 10 9 15 -3 5
-1 12 4 15 5 3 7 15 4 26 -3 11 0 20 6 20 6 0 10 3 10 8 -5 32 3 64 15 59 9
-4 12 0 9 13 -3 10 0 27 6 39 9 16 9 21 0 21 -7 0 -2 9 10 19 12 11 18 22 13
25 -5 3 -8 15 -6 28 1 13 3 27 3 31 1 5 7 5 14 1 7 -5 6 0 -3 11 -12 15 -12
17 -1 10 11 -6 13 -4 8 8 -4 10 -1 17 6 17 8 0 8 3 -2 9 -9 6 -10 10 -2 12 6
2 13 23 15 47 1 23 6 45 9 49 4 3 7 23 7 44 0 21 4 41 10 44 13 8 14 695 1
695 -13 0 -18 89 -6 94 5 3 4 5 -3 5 -7 1 -10 6 -7 11 3 6 1 10 -6 10 -6 0 -9
8 -6 19 3 12 -1 22 -10 25 -12 5 -13 9 -4 20 8 10 9 16 1 21 -5 3 -10 17 -10
31 0 16 -4 23 -11 18 -8 -5 -8 -1 0 14 8 15 8 23 0 27 -6 4 -8 13 -5 20 2 7
-1 18 -7 25 -9 10 -9 11 3 4 12 -6 11 -2 -3 19 -9 15 -15 27 -11 27 4 0 1 7
-6 15 -10 12 -10 15 1 15 9 0 8 4 -3 13 -9 6 -18 23 -20 37 -2 14 -6 27 -10
30 -4 3 -8 17 -10 32 -2 15 -7 30 -10 34 -4 3 -4 12 -1 20 3 8 1 14 -5 14 -5
0 -20 18 -31 41 -13 23 -16 38 -9 34 7 -4 0 6 -17 21 -17 15 -22 25 -12 21 23
-9 22 -2 -5 23 -12 11 -16 20 -10 20 7 0 12 5 12 10 0 6 -3 9 -7 8 -5 -2 -9 2
-11 7 -2 6 -11 19 -20 29 -11 12 -12 16 -3 11 10 -6 12 -4 7 4 -5 7 -18 16
-30 21 -20 8 -20 9 -1 9 18 1 18 2 -3 17 -13 9 -21 22 -18 30 3 8 -1 14 -9 14
-8 0 -15 5 -15 11 0 5 6 7 13 4 6 -4 2 2 -10 13 -14 13 -19 23 -12 31 5 6 6 9
3 7 -10 -7 -43 28 -63 67 -10 20 -15 35 -11 32 11 -7 6 22 -5 32 -4 4 -5 2 -1
-4 4 -7 3 -13 -1 -13 -16 0 -33 24 -33 47 0 13 -5 23 -11 23 -5 0 -7 -5 -3
-12 4 -7 3 -8 -5 -4 -6 4 -9 12 -6 17 4 5 0 9 -7 9 -9 0 -9 3 2 10 13 8 12 10
-3 10 -14 0 -17 5 -12 23 5 17 4 19 -4 7 -7 -10 -11 -11 -11 -2 0 6 -7 12 -16
12 -8 0 -12 5 -9 10 3 6 1 10 -5 10 -6 0 -8 5 -5 10 3 6 -1 10 -9 10 -9 0 -16
5 -16 11 0 5 -4 7 -10 4 -5 -3 -7 0 -5 8 6 15 -26 57 -43 57 -6 0 -9 7 -6 15
5 11 2 13 -12 8 -9 -3 -15 -2 -12 3 7 11 -17 35 -26 27 -3 -4 -6 -1 -6 4 0 6
6 14 12 17 7 4 3 4 -9 2 -16 -3 -23 2 -27 20 -4 13 -11 24 -17 24 -7 0 -6 -6
2 -17 13 -16 12 -17 -3 -4 -10 7 -18 20 -18 27 0 8 -7 14 -16 14 -8 0 -12 5
-9 10 3 6 1 10 -5 10 -6 0 -9 3 -7 8 3 4 -2 14 -11 22 -14 13 -15 12 -9 -4 6
-16 5 -17 -7 -7 -8 7 -12 19 -9 27 4 10 0 12 -11 8 -12 -5 -16 0 -16 17 0 19
-2 21 -10 9 -8 -13 -10 -12 -10 3 0 9 -6 16 -12 15 -7 -2 -12 3 -10 11 3 12 1
12 -14 0 -16 -12 -17 -12 -11 3 4 11 2 17 -6 15 -7 -1 -11 4 -9 11 1 6 -1 11
-5 11 -19 -3 -33 2 -33 11 0 5 8 7 18 3 9 -3 14 -3 11 1 -4 4 -16 8 -28 11
-11 2 -31 14 -43 27 -14 14 -17 16 -8 4 12 -16 9 -15 -17 4 -30 24 -47 50 -21
34 7 -4 8 -3 4 5 -5 8 -12 9 -20 2 -9 -7 -16 -5 -26 9 -8 11 -21 20 -29 20 -7
0 -20 8 -28 18 -8 9 -12 11 -8 5 4 -8 1 -11 -9 -7 -8 3 -17 12 -20 20 -3 8 -2
12 3 9 5 -3 12 -1 16 4 3 6 -3 8 -15 6 -11 -2 -22 0 -25 5 -3 5 -12 7 -19 4
-8 -3 -17 0 -22 7 -4 7 -3 10 4 5 6 -3 14 -1 18 5 4 7 3 9 -4 5 -6 -3 -14 -2
-17 4 -5 8 -12 7 -23 -2 -9 -7 -13 -8 -10 -3 3 6 0 15 -7 22 -11 10 -15 10
-18 0 -4 -9 -6 -9 -6 1 -1 6 -8 12 -16 12 -8 0 -15 5 -15 10 0 6 -7 10 -15 10
-8 0 -15 5 -15 11 0 6 -9 9 -20 6 -11 -3 -23 0 -27 5 -3 7 -1 8 5 4 7 -4 12
-4 12 -1 0 3 -13 11 -30 16 -16 6 -27 15 -24 20 3 5 -3 6 -12 2 -13 -5 -15 -3
-9 8 8 12 6 12 -8 0 -12 -10 -17 -10 -17 -2 0 8 -8 10 -20 6 -15 -5 -18 -3
-14 9 5 12 2 15 -10 10 -9 -3 -16 -2 -16 4 0 5 -10 8 -22 8 -13 -1 -31 7 -41
18 -10 12 -16 15 -12 8 6 -11 3 -11 -16 0 -13 7 -27 17 -30 22 -4 4 -10 3 -13
-3 -4 -6 -12 -9 -17 -5 -5 3 -7 10 -4 15 3 5 -2 6 -11 2 -10 -4 -15 -2 -11 3
3 6 -9 11 -26 12 -17 2 -36 7 -41 12 -6 6 -18 10 -29 10 -10 0 -16 3 -14 8 3
4 -11 6 -31 6 -21 -1 -40 4 -44 10 -6 8 -8 7 -8 -1 0 -7 -5 -13 -11 -13 -5 0
-7 5 -3 12 4 7 3 8 -4 4 -7 -4 -22 0 -34 8 -31 22 -210 23 -227 2 -15 -18 -5
-24 34 -20 37 3 67 -5 60 -16 -3 -4 4 -6 15 -3 11 3 28 2 37 -2 17 -7 31 -10
88 -19 11 -2 22 -5 25 -6 3 -2 12 -4 20 -4 8 -1 14 -6 13 -11 -1 -6 17 -11 40
-12 22 -2 46 -8 51 -14 8 -9 7 -10 -3 -4 -10 6 -12 4 -7 -4 6 -9 11 -9 21 -1
9 8 14 8 17 -1 2 -6 21 -12 42 -14 21 -1 42 -8 47 -16 7 -11 9 -11 9 -1 0 7 5
10 10 7 6 -4 8 -10 5 -15 -3 -5 4 -7 15 -5 11 2 20 -1 20 -6 0 -6 5 -7 11 -3
6 3 15 1 19 -7 8 -12 16 -15 75 -24 17 -2 37 -13 45 -23 9 -10 21 -17 28 -14
6 2 12 -1 12 -7 0 -6 11 -11 25 -11 14 0 28 -7 31 -15 4 -8 10 -12 15 -9 5 3
9 0 9 -6 0 -6 5 -8 10 -5 6 3 10 2 10 -4 0 -6 7 -8 15 -5 8 4 17 -1 21 -10 3
-9 10 -13 15 -10 5 3 9 1 9 -4 0 -6 13 -15 29 -20 15 -6 39 -21 51 -34 13 -12
20 -18 16 -11 -4 8 0 8 19 0 13 -7 26 -21 27 -32 2 -14 10 -20 26 -19 16 1 22
-3 18 -13 -3 -8 -1 -11 4 -8 6 3 10 1 10 -4 0 -6 8 -11 18 -11 28 0 34 -11 17
-36 -11 -17 -12 -25 -3 -30 7 -5 8 -3 3 6 -5 9 -4 11 4 6 15 -10 3 -29 -15
-22 -12 5 -18 -5 -15 -26 0 -4 -7 -4 -16 -1 -12 5 -14 3 -8 -7 5 -8 4 -11 -1
-7 -5 3 -21 -4 -34 -15 -14 -11 -19 -17 -12 -13 11 6 12 3 3 -14 -12 -22 -27
-30 -16 -8 4 6 0 4 -9 -7 -9 -11 -20 -15 -28 -10 -11 6 -11 5 0 -8 10 -12 9
-18 -3 -28 -13 -11 -15 -10 -10 6 3 10 -2 4 -10 -13 -8 -18 -20 -33 -27 -33
-6 0 -8 -3 -5 -7 4 -3 -1 -12 -11 -20 -9 -8 -11 -11 -4 -8 11 6 12 3 3 -14 -7
-11 -16 -21 -22 -21 -6 0 -8 -3 -6 -7 7 -11 -19 -33 -28 -25 -4 4 -6 0 -5 -8
5 -35 0 -52 -14 -47 -11 4 -13 1 -9 -10 5 -12 2 -15 -10 -10 -11 4 -14 2 -11
-8 3 -7 -5 -24 -17 -36 -16 -16 -18 -21 -6 -16 16 6 16 5 1 -18 -9 -14 -20
-25 -24 -25 -4 0 -11 -7 -14 -16 -4 -9 -2 -13 5 -8 7 4 7 0 -1 -15 -6 -12 -15
-19 -20 -16 -4 3 -6 -5 -2 -17 3 -14 1 -19 -6 -14 -8 5 -10 1 -5 -10 5 -12 3
-15 -6 -9 -10 6 -11 3 -1 -15 8 -15 8 -20 1 -16 -6 4 -11 3 -11 -3 0 -6 -6 -8
-13 -5 -10 4 -13 -6 -12 -38 1 -24 -1 -47 -4 -53 -7 -12 -12 -34 -14 -57 -1
-10 -4 -18 -8 -18 -3 0 -6 -15 -6 -32 0 -18 -4 -42 -10 -53 -6 -12 -8 -81 -7
-170 4 -164 5 -175 13 -175 3 0 7 -10 7 -22 3 -47 9 -78 15 -78 4 0 7 -11 8
-25 4 -57 6 -65 14 -65 4 0 6 -4 2 -9 -3 -5 0 -13 6 -16 5 -4 8 -14 5 -22 -3
-8 -1 -11 4 -8 6 3 10 -3 10 -15 0 -12 4 -19 8 -16 4 2 9 -5 9 -17 1 -12 7
-23 13 -25 5 -2 10 -8 10 -13 0 -6 -6 -7 -12 -3 -7 4 -2 -5 12 -21 14 -16 19
-25 11 -20 -9 5 -8 -1 4 -18 9 -15 14 -31 11 -36 -4 -5 -1 -13 5 -17 8 -5 9
-3 4 6 -5 8 -4 11 3 7 5 -4 8 -16 5 -27 -3 -11 0 -20 6 -20 6 0 11 -11 11 -25
0 -14 3 -25 8 -25 4 0 12 -11 19 -25 6 -15 7 -22 1 -19 -6 4 -6 -1 1 -13 6
-11 7 -24 3 -28 -4 -3 -1 -5 7 -3 12 3 20 -15 23 -49 1 -7 5 -13 10 -13 5 0 7
-4 3 -9 -3 -5 2 -16 10 -24 8 -9 15 -27 15 -41 0 -14 5 -26 10 -26 6 0 9 -3 9
-7 -1 -5 0 -10 1 -13 14 -37 21 -288 8 -296 -4 -3 -8 -14 -8 -25 0 -11 -4 -17
-10 -14 -6 4 -7 -1 -3 -11 4 -12 3 -15 -5 -10 -8 4 -10 2 -6 -7 3 -8 1 -18 -5
-22 -18 -11 -12 -35 8 -35 10 0 22 -7 25 -15 4 -12 10 -14 25 -5 24 12 211 14
211 1 0 -13 -33 -75 -45 -83 -5 -4 -34 -8 -62 -8 -41 0 -53 4 -53 15 0 8 -5
15 -11 15 -6 0 -9 6 -6 13 3 7 -1 21 -9 32 -10 14 -14 15 -15 4 -2 -26 3 -44
14 -51 7 -4 12 -30 12 -58 0 -27 3 -50 7 -50 4 0 3 -11 -2 -24 -5 -15 -5 -27
3 -35 8 -8 8 -11 -2 -11 -7 0 -9 -4 -6 -10 3 -5 1 -10 -5 -10 -7 0 -9 -7 -6
-16 3 -8 2 -12 -3 -9 -5 3 -11 -3 -13 -12 -5 -21 22 -83 35 -83 5 0 4 -7 -3
-15 -10 -12 -10 -15 0 -15 9 0 10 -3 1 -13 -6 -8 -8 -17 -5 -20 4 -3 -2 -6
-12 -6 -11 0 -30 -3 -44 -5 -14 -2 -29 -5 -33 -5 -5 -1 -5 -6 -1 -12 4 -7 1
-10 -7 -7 -18 7 -51 -10 -44 -22 3 -6 -1 -7 -9 -4 -10 4 -16 1 -16 -8 0 -7 -9
-21 -20 -31 -23 -20 -34 -22 -24 -5 4 6 3 8 -4 5 -5 -4 -9 -15 -8 -24 2 -9 -6
-26 -16 -37 -55 -63 -53 -60 -32 -53 18 7 18 6 2 -7 -10 -7 -19 -25 -20 -40
-1 -14 -6 -26 -10 -26 -4 0 -4 -7 -1 -17 4 -11 3 -14 -5 -9 -7 4 -12 1 -12 -7
0 -15 -40 -26 -71 -19 -8 1 -19 17 -25 35 -5 18 -15 31 -23 29 -7 -1 -19 3
-27 9 -8 6 -14 7 -14 2 0 -5 -12 -8 -27 -5 l-28 4 1 141 c2 193 -2 177 39 173
19 -2 38 0 40 5 3 4 13 5 22 2 11 -4 14 -3 9 5 -4 7 -3 12 1 12 5 0 10 18 12
41 1 30 -1 39 -10 33 -9 -5 -10 -2 -6 10 4 9 3 14 -2 11 -5 -3 -12 -1 -15 4
-3 5 -24 8 -46 6 -44 -4 -41 -8 -45 75 -1 25 -3 50 -4 55 0 7 -40 11 -106 10
-103 0 -105 0 -105 23 0 47 -10 48 -269 48 -200 -1 -247 2 -259 13 -12 13 -12
16 2 26 9 7 16 17 16 23 0 5 8 9 18 7 9 -1 22 2 29 7 7 5 17 7 23 3 5 -3 10
-3 10 2 0 4 17 9 37 11 21 1 42 7 47 12 6 6 18 10 28 10 10 0 21 7 25 16 5 13
7 13 14 2 7 -10 9 -10 9 0 0 7 11 17 25 22 14 5 25 14 25 20 0 5 6 10 14 10 8
0 18 5 22 12 5 7 2 8 -7 3 -8 -4 4 9 26 30 22 21 31 32 20 24 -18 -13 -19 -13
-6 3 7 10 20 18 27 18 8 0 14 5 14 11 0 5 -6 7 -12 4 -7 -4 -5 0 4 8 10 8 15
17 11 20 -3 4 -1 7 5 7 6 0 9 6 6 14 -3 8 -1 17 5 21 6 3 11 14 11 23 0 9 7
30 15 45 8 15 10 25 4 21 -7 -4 -7 0 -1 12 21 42 27 108 26 284 -2 258 -2 262
-15 254 -8 -4 -8 -1 -1 13 6 10 7 25 3 33 -4 8 -7 22 -6 30 1 16 -18 40 -32
40 -5 0 -9 9 -10 20 -1 11 4 20 10 20 7 0 6 4 -3 10 -13 8 -13 10 1 10 18 0
51 68 41 85 -10 16 -9 45 1 45 6 0 6 5 1 13 -5 6 -9 19 -8 27 1 8 2 21 3 28 0
7 4 11 9 9 4 -3 7 11 6 31 0 21 2 42 5 47 8 15 11 34 16 100 2 33 7 81 11 107
5 40 3 51 -13 65 -10 10 -14 16 -8 13 6 -3 -2 6 -17 19 -26 22 -27 25 -11 38
10 8 13 12 7 9 -7 -3 -14 1 -17 8 -4 10 0 13 14 11 11 -2 17 0 14 6 -4 5 -1 9
5 9 6 0 8 5 5 10 -7 12 -8 12 76 14 37 1 73 6 80 12 8 7 61 10 129 9 63 -1
107 0 97 3 -9 2 -14 8 -11 14 5 7 2 8 -6 3 -19 -12 -60 -13 -60 -2 0 5 -7 4
-15 -3 -11 -9 -15 -9 -15 -1 0 9 -5 9 -20 1 -15 -8 -21 -7 -28 7 -5 10 -8 27
-6 39 2 12 -4 30 -12 40 -9 10 -13 14 -10 8 3 -7 -6 -9 -25 -6 -32 5 -28 17 6
24 17 3 20 11 21 50 0 49 -15 68 -36 43 -13 -16 -40 -9 -40 10 0 7 7 16 16 19
10 4 13 2 8 -6 -4 -6 4 -3 18 8 21 16 24 23 17 51 -4 18 -4 33 0 33 3 0 -1 5
-9 10 -13 9 -13 10 0 10 9 0 11 3 4 8 -5 4 -18 24 -28 45 -11 25 -23 37 -32
33 -20 -8 -28 12 -12 31 9 12 9 15 1 9 -16 -9 -16 -1 -3 24 8 16 8 18 -5 14
-15 -6 -19 4 -16 36 2 13 0 13 -8 1 -5 -8 -16 -11 -26 -8 -10 4 -14 3 -9 -4 7
-13 -13 -29 -37 -29 -22 0 -17 36 7 56 10 8 14 13 8 10 -7 -3 -15 1 -18 10 -4
10 -2 13 6 8 7 -5 8 -3 4 5 -5 7 -15 10 -23 6 -13 -4 -13 -3 -4 9 10 11 6 12
-21 7 -18 -4 -34 -12 -34 -19 -3 -25 -5 -26 -19 -8 -13 17 -12 21 3 33 9 8 11
12 5 8 -7 -3 -13 -2 -13 2 0 5 6 15 13 22 10 11 10 13 0 7 -8 -4 -13 -1 -13 7
0 8 -8 21 -18 30 -14 13 -21 14 -30 5 -9 -9 -12 -9 -12 3 0 11 -2 11 -9 1 -4
-7 -14 -14 -22 -15 -8 -2 -19 -6 -25 -9 -7 -5 -10 2 -9 20 2 40 -15 74 -34 66
-9 -3 -21 -7 -28 -7 -7 0 -10 -4 -8 -8 5 -6 -18 -19 -33 -19 -4 0 -8 14 -8 31
-1 16 -3 32 -5 34 -11 10 -92 8 -86 -2 2 -5 -1 -20 -7 -36 -11 -25 -13 -26
-32 -11 -12 10 -14 14 -4 11 13 -4 15 2 12 29 -4 35 -17 42 -64 36 -21 -3 -28
-10 -28 -26 0 -14 -6 -23 -15 -23 -13 0 -20 16 -16 40 0 4 -2 7 -6 8 -51 6
-77 3 -91 -8 -9 -8 -11 -11 -4 -8 11 6 11 3 1 -13 -7 -12 -18 -18 -24 -14 -5
3 -5 -1 2 -9 10 -12 7 -15 -18 -17 -16 -1 -29 3 -29 8 0 6 5 8 11 4 7 -4 7 1
-1 16 -8 15 -8 20 -1 16 6 -4 11 0 11 10 0 10 -3 15 -6 11 -3 -3 -17 -2 -30 3
-16 6 -24 6 -24 -1 0 -6 -4 -7 -10 -4 -15 9 -32 -5 -22 -18 15 -21 8 -42 -15
-45 -19 -3 -22 1 -18 26 2 23 -1 31 -16 35 -10 3 -17 1 -13 -4 3 -5 -2 -9 -11
-9 -9 0 -14 -4 -11 -9 4 -5 1 -11 -6 -13 -7 -3 -12 -18 -13 -34 0 -40 -32 -46
-37 -7 -2 22 -8 28 -28 28 -14 0 -35 -11 -47 -25 -19 -21 -20 -26 -7 -33 13
-7 13 -11 2 -25 -11 -13 -11 -14 0 -8 10 6 13 3 10 -10 -2 -12 -12 -19 -28
-19 -20 0 -25 5 -24 23 2 24 -15 29 -34 10 -9 -9 -12 -9 -12 2 0 9 -5 8 -16
-6 -8 -10 -12 -13 -8 -5 4 8 3 12 -3 8 -12 -8 -10 -46 4 -55 17 -11 22 -49 7
-49 -8 0 -14 5 -14 11 0 5 -7 1 -16 -10 -8 -10 -13 -14 -9 -7 3 7 -3 21 -13
31 -17 17 -20 18 -31 3 -9 -12 -10 -13 -6 -1 5 10 2 10 -8 -2 -8 -10 -17 -16
-20 -13 -4 3 -5 2 -2 -2 3 -3 0 -12 -6 -19 -7 -8 -6 -14 2 -20 8 -5 9 -3 4 6
-5 9 -4 11 4 6 6 -4 9 -12 6 -17 -4 -5 -2 -9 3 -9 5 0 9 -7 9 -15 0 -8 -8 -15
-17 -15 -10 0 -23 7 -30 15 -9 10 -9 15 -1 15 6 0 11 -5 11 -11 0 -5 5 -7 11
-4 6 5 4 12 -7 20 -15 11 -21 9 -37 -9 -10 -11 -16 -14 -12 -6 4 9 0 7 -9 -4
-9 -11 -20 -15 -28 -10 -10 6 -10 4 1 -9 12 -16 8 -22 -12 -18 -5 1 -6 -3 -3
-8 3 -5 -3 -19 -13 -32 -10 -13 -16 -30 -13 -38 3 -9 0 -11 -8 -6 -9 5 -11 4
-6 -4 10 -16 -3 -53 -16 -45 -6 4 -8 -1 -3 -16 5 -15 4 -20 -4 -16 -13 9 -13
13 -15 -96 -2 -94 3 -114 28 -105 19 8 28 -4 15 -23 -5 -8 -9 -10 -9 -5 0 6
-9 11 -19 11 -11 0 -18 -3 -15 -7 2 -4 -2 -9 -8 -11 -7 -3 -13 -20 -13 -39 0
-23 -5 -33 -13 -31 -8 1 -11 -2 -7 -8 3 -6 11 -8 16 -4 6 3 19 -2 29 -11 14
-12 36 -17 84 -16 45 0 66 -4 66 -12 0 -9 3 -8 9 1 6 11 15 7 37 -13 16 -15
21 -22 11 -15 -15 11 -17 10 -11 -4 3 -9 12 -16 18 -16 7 0 12 -11 12 -24 0
-14 -4 -22 -10 -19 -5 4 -7 -1 -3 -11 4 -10 3 -15 -3 -11 -6 3 -10 1 -10 -4 0
-6 -6 -10 -12 -8 -10 1 -13 -29 -14 -120 -1 -68 2 -123 6 -123 4 0 9 -57 10
-127 3 -162 2 -153 12 -147 7 5 12 -10 9 -28 0 -4 5 -5 12 -2 8 3 13 -6 13
-26 1 -20 -2 -27 -10 -23 -6 4 -5 -1 2 -10 12 -14 11 -16 -6 -12 -13 2 -19 -2
-18 -13 0 -9 -3 -16 -9 -15 -15 2 -8 -515 7 -545 10 -19 9 -25 -2 -32 -10 -7
-11 -10 -2 -10 6 0 12 -6 12 -14 0 -8 6 -17 13 -19 8 -4 8 -6 -2 -6 -12 -1
-11 -4 3 -14 15 -11 23 -34 28 -85 1 -7 8 -10 16 -7 13 5 13 3 1 -12 -12 -14
-12 -16 0 -8 11 6 13 4 8 -9 -5 -11 -3 -15 5 -10 8 5 9 2 5 -10 -4 -9 -3 -15
2 -12 5 3 17 -2 28 -12 10 -9 12 -12 4 -7 -12 9 -12 7 -1 -12 8 -12 18 -19 22
-17 8 5 11 -5 11 -38 0 -10 4 -15 8 -12 5 3 7 10 4 15 -3 5 1 6 10 3 9 -4 14
-9 11 -11 -7 -7 20 -33 34 -33 6 0 8 -5 4 -12 -4 -7 -3 -8 5 -4 7 4 20 -2 31
-16 18 -20 19 -21 14 -3 -6 20 -6 20 11 0 8 -11 21 -20 28 -21 33 -3 38 -5 33
-12 -4 -7 24 -13 77 -15 9 -1 17 -6 17 -11 0 -5 3 -6 6 -3 4 3 15 2 25 -4 13
-6 19 -6 19 1 0 5 5 10 10 10 6 0 10 -7 10 -15 0 -8 5 -15 11 -15 5 0 7 5 3
12 -5 7 -3 8 5 4 7 -5 10 -14 7 -22 -3 -8 -2 -14 3 -14 9 0 11 -29 2 -31 -3
-1 -116 -2 -251 -3 -214 -2 -249 -4 -275 -20 -16 -9 -21 -15 -10 -12 19 6 18
5 -2 -13 -12 -10 -20 -20 -18 -23 3 -2 -30 -4 -73 -4 l-77 1 -3 -70 c-2 -39
-7 -74 -13 -80 -6 -5 -9 -5 -9 3 0 8 -7 9 -24 2 -17 -6 -26 -5 -28 2 -3 7 -10
5 -20 -5 -8 -9 -19 -13 -23 -9 -5 4 -6 0 -2 -9 3 -9 2 -20 -3 -25 -11 -11 19
-76 30 -69 5 3 11 1 15 -4 3 -6 15 -7 29 -1 43 16 47 4 44 -166 l-3 -159 -51
0 c-44 0 -51 -2 -49 -17 2 -10 -1 -17 -7 -15 -16 3 -17 -41 -1 -54 7 -6 10
-15 7 -20 -3 -5 -2 -9 3 -8 4 1 10 0 13 -1 3 -1 23 -3 45 -4 l40 -2 5 -149 5
-150 107 0 c69 0 104 -3 100 -10 -3 -5 2 -4 11 4 9 7 17 10 17 6 0 -4 6 -3 13
3 18 15 471 17 462 1 -5 -8 -1 -7 15 1 12 7 20 8 17 3 -3 -4 0 -13 7 -18 20
-19 156 -6 156 15 0 4 7 11 16 14 15 6 15 4 3 -10 -13 -16 -12 -16 8 -6 31 17
340 16 346 0 3 -7 6 -4 6 6 1 20 1 20 16 0 8 -10 15 -15 15 -10 0 5 6 3 14 -3
9 -8 16 -8 20 -2 4 7 15 7 31 1 13 -5 27 -6 29 -1 6 9 49 7 65 -3 5 -4 12 -2
16 3 3 7 15 7 30 1 15 -6 27 -6 30 0 3 6 15 6 30 0 15 -6 27 -6 30 0 3 5 12 7
20 3 17 -6 16 -16 18 167 l2 135 45 0 c25 0 47 3 50 7 9 11 99 17 106 7 3 -5
10 -7 15 -4 5 4 9 3 10 -2 2 -30 11 -58 21 -70 6 -7 8 -16 5 -19 -3 -4 5 -18
18 -32 33 -36 42 -21 17 30 -16 34 -20 59 -17 118 2 64 6 97 15 120 1 3 2 8 1
13 0 4 3 7 8 7 5 0 11 10 15 23 10 40 72 96 147 135 81 41 85 37 84 -79 0 -80
-3 -103 -16 -112 -25 -19 -32 -53 -14 -71 9 -9 20 -16 24 -16 7 0 11 -15 12
-52 0 -10 3 -17 7 -17 19 3 21 -3 9 -24 -22 -34 -5 -83 30 -90 51 -10 87 45
59 88 -15 22 -15 25 -1 25 8 0 16 8 16 18 1 9 2 22 3 28 0 7 13 24 29 39 33
34 33 39 1 62 -24 18 -26 25 -26 99 0 126 0 123 20 119 11 -2 42 -18 71 -35
39 -24 55 -30 64 -21 8 8 7 11 -5 11 -9 0 -23 9 -31 20 -8 11 -17 17 -20 13
-4 -3 -7 1 -7 10 0 10 -5 14 -15 11 -8 -4 -15 -2 -15 4 0 6 -11 9 -25 8 -14
-2 -31 4 -37 12 -11 13 -11 14 2 7 12 -7 13 -6 3 6 -7 8 -8 20 -4 28 5 7 6 22
3 34 -4 15 -2 18 9 12 8 -5 11 -5 7 -1 -3 4 0 19 8 34 12 24 12 28 -4 34 -13
5 -13 7 -2 7 12 1 13 3 1 10 -8 5 -10 14 -6 21 5 8 4 11 -2 7 -7 -5 -11 6 -11
27 0 19 -3 39 -7 45 -3 6 -3 11 2 11 4 0 9 17 10 38 1 20 2 45 3 55 1 9 5 15
10 12 6 -3 7 1 4 10 -4 10 -2 15 7 13 8 -2 13 4 11 14 -1 9 3 20 9 24 8 5 10
3 4 -7 -4 -8 1 -5 12 6 16 17 17 22 6 33 -19 19 -16 27 5 11 9 -7 7 -2 -6 13
-13 14 -24 35 -25 46 -1 12 -7 24 -15 27 -8 3 -12 11 -9 19 3 8 3 17 -1 20 -3
4 -7 12 -8 19 -13 68 -14 91 -8 105 4 10 8 28 8 42 1 14 5 31 9 38 5 6 6 12 2
12 -3 0 2 16 10 36 8 20 17 57 20 82 2 25 12 53 21 63 10 11 12 19 6 19 -6 0
0 12 13 26 14 15 22 30 20 35 -3 4 0 11 6 14 5 4 8 13 5 21 -3 8 -1 14 5 14 6
0 8 4 4 9 -3 5 0 13 6 16 5 4 8 13 5 21 -3 7 4 18 15 24 11 6 17 15 13 21 -3
5 0 16 6 24 7 8 9 15 6 15 -4 0 -1 10 6 23 12 21 14 27 22 65 2 9 9 16 16 14
6 -1 9 2 5 8 -4 6 -1 18 7 27 11 14 11 16 -2 9 -11 -6 -11 -4 1 6 9 7 15 21
13 31 -1 9 2 15 7 11 5 -3 9 6 9 20 0 14 5 26 11 26 5 0 7 5 4 10 -3 6 -1 10
5 10 6 0 9 4 5 9 -3 5 -1 12 4 15 5 4 8 14 7 24 -2 9 2 20 8 24 8 5 7 8 -2 8
-7 0 -10 5 -7 10 4 6 10 8 13 6 9 -5 6 63 -2 71 -3 4 2 15 11 26 10 11 12 17
6 13 -7 -4 -13 -2 -13 3 0 6 5 11 11 11 5 0 7 4 4 10 -3 5 -1 19 5 30 6 11 7
20 3 20 -10 0 -10 61 0 77 4 6 3 14 -2 17 -5 3 -5 21 -1 41 5 21 4 35 -2 35
-5 0 -6 5 -3 10 4 6 1 17 -5 25 -10 12 -10 15 0 15 9 0 9 4 2 13 -5 6 -9 29
-8 50 0 20 -3 37 -8 37 -5 0 -6 3 -3 7 4 3 2 12 -4 20 -9 10 -8 13 2 13 11 0
11 2 -1 10 -8 5 -11 10 -7 10 5 0 2 7 -7 15 -8 9 -13 22 -10 30 4 8 1 15 -6
15 -9 0 -9 4 1 17 8 9 9 14 3 10 -7 -4 -18 1 -25 10 -11 13 -11 15 -1 9 11 -7
11 -4 0 13 -7 12 -16 21 -20 21 -5 0 -8 8 -8 18 0 10 -6 24 -12 31 -11 11 -10
12 1 6 10 -6 7 2 -5 21 -27 38 -40 64 -20 40 9 -11 16 -14 16 -8 0 7 -11 22
-25 34 -13 11 -22 25 -19 30 3 4 -2 8 -10 8 -9 0 -16 8 -16 19 0 11 -7 27 -16
35 -8 9 -13 20 -9 25 3 5 0 13 -6 17 -8 5 -10 2 -5 -7 4 -8 1 -5 -8 5 -8 10
-13 22 -11 26 3 5 -2 11 -11 14 -9 4 -14 13 -10 21 3 8 2 15 -3 15 -15 0 -51
37 -51 53 0 8 -10 17 -22 20 -19 5 -20 8 -7 23 8 10 9 15 2 11 -8 -5 -11 1
-10 20 1 16 8 29 15 29 25 3 27 5 12 14 -12 8 -12 10 -1 10 8 0 20 8 28 18 8
10 11 11 7 2 -6 -12 -5 -13 7 -4 17 13 49 14 49 2 0 -5 5 -6 10 -3 6 3 10 -1
10 -9 0 -15 12 -21 34 -17 5 1 3 -6 -5 -15 -10 -13 -10 -16 -1 -10 8 5 19 1
28 -10 9 -11 12 -13 9 -6 -12 22 26 -1 55 -34 14 -16 17 -22 6 -14 -18 14 -18
14 -6 -7 8 -12 18 -19 23 -16 14 8 78 -59 72 -76 -5 -11 -3 -12 10 -1 9 7 15
9 13 4 -4 -11 38 -54 52 -54 6 0 10 -4 10 -10 0 -5 -8 -6 -17 -3 -10 4 8 -17
39 -46 31 -29 54 -59 52 -66 -3 -7 2 -15 10 -18 9 -4 16 -13 16 -22 0 -8 8
-15 18 -15 14 0 15 -2 2 -10 -13 -8 -12 -10 3 -10 9 0 17 -7 17 -16 0 -8 4
-13 9 -9 6 3 8 -3 6 -15 -2 -11 1 -19 8 -17 7 1 11 -6 11 -15 -1 -10 4 -18 12
-18 8 0 14 -8 14 -17 0 -9 12 -30 28 -46 15 -17 20 -27 12 -23 -8 4 -5 -1 8
-10 12 -9 22 -25 22 -35 0 -10 9 -24 20 -32 11 -8 17 -17 13 -20 -3 -4 -1 -7
5 -7 7 0 12 -9 12 -21 0 -11 4 -18 8 -15 7 4 12 -12 15 -56 1 -9 4 -16 7 -16
18 1 21 -4 10 -17 -11 -13 -10 -14 5 -8 15 5 17 3 12 -11 -5 -11 -3 -15 5 -10
8 5 9 2 5 -9 -4 -11 -1 -17 7 -17 8 0 13 -8 12 -17 -2 -10 1 -21 6 -24 5 -3
10 -18 12 -32 1 -15 6 -30 11 -35 4 -4 5 -1 0 7 -5 9 -4 12 3 7 6 -3 9 -15 7
-26 -2 -11 0 -22 6 -25 5 -4 9 -15 9 -25 0 -10 5 -22 12 -26 7 -5 8 -3 3 6 -5
9 -4 11 4 6 9 -6 9 -11 0 -22 -9 -11 -9 -14 0 -14 7 0 9 -4 6 -10 -3 -5 -2
-10 2 -10 8 0 13 -28 16 -77 0 -7 5 -13 10 -13 5 0 4 -6 -2 -14 -8 -9 -8 -15
-2 -18 6 -1 12 -18 14 -37 3 -22 11 -37 22 -41 14 -5 15 -9 6 -14 -8 -5 -9
-12 -2 -20 5 -6 11 -23 13 -36 2 -14 6 -29 9 -35 2 -5 4 -27 4 -47 -1 -21 3
-34 9 -31 5 4 7 -1 3 -10 -3 -10 -2 -17 4 -17 6 0 7 -6 1 -17 -6 -9 -6 -29 -2
-45 5 -15 5 -30 0 -33 -5 -3 -6 -16 -1 -28 4 -12 7 -32 6 -44 -1 -13 2 -23 6
-23 4 0 6 -83 5 -183 -1 -140 -4 -188 -15 -200 -9 -12 -10 -17 -2 -17 7 0 9
-5 6 -11 -4 -5 -6 -34 -5 -62 2 -88 -3 -127 -20 -137 -7 -4 -8 -10 -3 -13 13
-8 8 -62 -6 -59 -9 2 -9 -3 -2 -17 7 -13 7 -21 1 -23 -11 -3 -21 -38 -23 -75
-1 -13 -5 -23 -9 -23 -5 0 -8 -6 -7 -12 5 -39 -3 -77 -21 -96 -12 -12 -16 -22
-10 -22 6 0 3 -11 -6 -25 -9 -14 -14 -25 -11 -25 2 0 -1 -17 -9 -37 -7 -21
-18 -37 -25 -35 -9 2 -8 -2 2 -14 12 -15 12 -17 -1 -12 -10 4 -16 -2 -17 -18
-2 -13 -4 -35 -5 -48 -2 -13 -6 -22 -9 -20 -4 2 -9 -6 -12 -17 -4 -14 -10 -18
-19 -13 -10 6 -10 4 1 -9 7 -9 9 -17 3 -17 -5 0 -13 -7 -16 -16 -3 -9 -2 -12
5 -8 6 3 5 -3 -3 -15 -7 -12 -18 -19 -25 -17 -7 3 -15 1 -18 -5 -4 -5 -3 -9 2
-8 20 4 23 -2 8 -17 -9 -9 -14 -23 -11 -30 3 -8 1 -14 -5 -14 -6 0 -7 -6 -3
-13 5 -7 0 -6 -11 3 -12 10 -16 10 -11 2 4 -7 3 -18 -2 -25 -6 -7 -12 -16 -14
-22 -1 -5 -6 -9 -10 -8 -4 2 -5 -4 -2 -12 4 -8 2 -15 -3 -15 -5 0 -10 -10 -10
-22 -1 -13 -10 -28 -19 -35 -9 -6 -13 -16 -10 -22 4 -5 -3 -12 -14 -16 -11 -3
-20 -13 -20 -21 0 -8 -4 -14 -10 -14 -5 0 -9 -6 -7 -12 1 -7 -3 -12 -10 -11
-7 2 -10 -7 -7 -24 5 -24 3 -25 -12 -12 -16 12 -17 12 -11 -3 4 -12 0 -21 -12
-28 -10 -5 -22 -21 -25 -35 -4 -16 -11 -23 -18 -19 -7 5 -9 2 -5 -9 4 -12 1
-15 -15 -12 -11 3 -18 2 -15 -2 10 -9 -13 -44 -24 -38 -5 4 -9 -1 -9 -9 0 -9
-5 -16 -11 -16 -5 0 -7 5 -3 12 4 7 3 8 -5 4 -6 -4 -9 -12 -5 -17 3 -5 1 -15
-4 -22 -10 -11 -12 -17 -12 -34 0 -5 -5 -1 -10 7 -8 12 -10 10 -10 -10 0 -20
-2 -22 -10 -10 -9 13 -10 13 -11 0 -1 -8 -1 -19 0 -23 1 -5 -3 -6 -9 -2 -5 3
-10 -2 -10 -12 0 -14 -2 -15 -9 -5 -7 11 -10 10 -15 -3 -3 -9 -3 -22 1 -28 4
-7 -1 -6 -10 2 -15 12 -17 12 -11 -4 5 -13 4 -16 -4 -11 -8 4 -12 0 -12 -11 0
-15 -2 -16 -10 -3 -8 12 -10 10 -10 -10 0 -18 -3 -21 -9 -12 -7 11 -10 10 -15
-3 -3 -9 -3 -22 1 -28 4 -7 -2 -5 -12 3 -10 8 -16 11 -14 5 7 -13 -27 -46 -37
-37 -5 4 -3 -1 4 -10 11 -14 11 -16 -3 -14 -9 1 -21 9 -26 17 -7 11 -9 10 -10
-6 l0 -20 -8 20 c-5 11 -14 20 -22 20 -8 0 -14 9 -14 20 1 11 -5 24 -12 28 -7
4 -13 12 -13 18 0 5 -12 22 -27 36 -16 14 -21 22 -13 17 13 -7 13 -6 0 6 -9 9
-15 21 -12 28 2 7 -2 11 -9 10 -7 -2 -13 2 -14 8 0 6 -8 18 -18 28 -27 27 -8
50 45 52 57 2 60 3 54 13 -3 5 1 12 10 15 10 4 13 2 9 -7 -4 -6 0 -4 9 7 8 10
19 15 25 11 7 -4 8 0 4 11 -4 11 -2 15 4 11 6 -4 14 0 17 9 3 8 11 12 17 8 8
-5 9 -3 4 6 -6 10 -4 12 9 7 11 -5 15 -3 10 5 -5 7 -2 9 9 5 12 -4 14 -2 10
10 -4 11 -2 14 5 9 8 -5 12 0 12 13 0 11 6 24 14 28 14 8 16 12 16 34 0 5 4 7
10 4 6 -4 7 1 3 11 -3 10 -2 15 3 12 5 -4 10 5 11 19 0 14 5 28 10 32 11 8 12
121 1 121 -5 0 -4 10 3 21 8 15 8 19 0 15 -10 -6 -16 13 -12 36 0 5 -4 8 -10
8 -6 0 -8 7 -5 16 3 8 2 13 -3 10 -5 -3 -11 1 -15 9 -3 8 0 15 7 15 6 0 2 7
-10 15 -12 8 -23 25 -25 38 -2 15 -9 21 -22 19 -10 -2 -15 1 -11 7 3 7 0 8 -9
5 -9 -3 -16 -10 -16 -15 0 -8 27 -43 60 -78 8 -9 15 -23 15 -31 -1 -8 4 -33
10 -55 27 -95 0 -216 -62 -284 -18 -20 -33 -41 -33 -47 0 -6 -6 -11 -14 -11
-7 0 -31 -10 -52 -24 -21 -13 -43 -25 -49 -26 -5 -1 -23 -5 -40 -9 -71 -15
-145 -4 -216 32 -27 13 -56 21 -66 18 -11 -4 -14 -3 -6 3 13 10 -31 68 -46 59
-5 -3 -8 2 -7 11 1 21 -20 28 -28 8 -3 -9 -2 -14 3 -11 9 6 26 -22 23 -36 -1
-4 5 -5 12 -2 13 5 33 -29 28 -48 -1 -4 5 -5 12 -2 8 3 19 -4 26 -16 10 -18 9
-21 -1 -15 -8 6 -11 4 -7 -6 3 -8 -1 -24 -9 -34 -16 -20 -16 -20 -9 0 5 17 3
16 -12 -4 -11 -14 -24 -21 -31 -17 -6 4 -11 4 -10 -1 4 -22 -3 -32 -20 -28
-13 2 -18 -1 -15 -10 3 -7 0 -16 -7 -21 -8 -5 -10 -3 -4 7 5 8 -1 6 -13 -4
-11 -11 -25 -16 -30 -13 -6 3 -12 -1 -15 -8 -3 -8 -16 -20 -28 -26 -14 -8 -19
-8 -15 -1 5 7 1 9 -8 5 -9 -3 -13 -10 -10 -15 3 -5 -1 -9 -10 -9 -8 0 -16 -5
-18 -12 -4 -10 -20 -15 -70 -20 -9 -1 -15 -4 -13 -7 3 -2 -3 -10 -13 -17 -13
-9 -19 -9 -24 -1 -5 8 -8 5 -8 -7 0 -15 -3 -16 -14 -7 -11 9 -14 8 -12 -6 1
-13 -7 -18 -28 -18 -16 -1 -32 -7 -34 -13 -3 -9 -8 -10 -16 -2 -9 7 -18 5 -30
-9 -10 -11 -25 -17 -37 -14 -11 3 -19 0 -19 -7 0 -6 -6 -10 -12 -7 -7 2 -19
-3 -26 -12 -8 -9 -11 -10 -7 -3 4 7 -9 4 -30 -8 -20 -11 -33 -15 -30 -9 6 8 2
8 -13 0 -11 -6 -32 -11 -46 -11 -14 0 -26 -6 -26 -12 0 -10 -3 -9 -9 1 -5 8
-11 9 -15 3 -3 -6 -14 -11 -24 -11 -23 0 -44 -5 -61 -15 -10 -7 -12 -6 -6 4 6
9 4 11 -6 5 -7 -5 -22 -10 -32 -10 -10 -1 -23 -8 -28 -16 -7 -11 -9 -11 -9 -1
0 7 -5 10 -11 7 -17 -11 -59 -13 -59 -3 0 5 -6 6 -12 2 -15 -10 -48 -13 -48
-5 0 3 -21 5 -47 3 -41 -3 -89 -3 -153 -2 -8 0 -44 0 -80 0 -152 0 -170 1
-170 12 0 4 -12 6 -27 4 -16 -1 -34 2 -42 8 -11 8 -13 8 -8 -1 5 -7 0 -9 -13
-6 -11 3 -20 9 -20 13 0 4 -14 6 -31 5 -17 -1 -33 3 -35 10 -3 7 -21 10 -45 8
-30 -2 -38 0 -33 9 5 9 2 9 -9 -1 -15 -12 -21 -9 -18 11 0 3 -7 5 -17 4 -9 -2
-22 4 -29 13 -10 13 -12 13 -13 2 0 -11 -5 -9 -22 5 -13 12 -18 13 -13 4 7
-12 6 -13 -6 -4 -8 6 -26 14 -41 18 -20 5 -26 11 -22 24 5 15 4 15 -6 2 -9
-11 -13 -12 -17 -2 -2 6 -9 9 -14 6 -16 -9 -59 5 -59 20 0 7 -10 12 -22 11
-26 -2 -59 15 -52 27 3 4 -4 8 -16 8 -12 0 -19 4 -16 8 3 5 -1 9 -9 9 -8 0
-12 -4 -9 -9 3 -4 0 -8 -5 -8 -6 0 -11 7 -11 16 0 8 -5 12 -10 9 -6 -3 -10 -1
-10 5 0 6 -4 9 -9 5 -5 -3 -16 3 -23 12 -7 10 -19 18 -25 19 -30 2 -34 5 -28
14 4 6 -1 7 -11 3 -13 -5 -16 -2 -11 9 4 12 1 14 -14 11 -11 -3 -19 0 -19 6 0
7 -4 9 -10 6 -6 -4 -7 1 -3 11 4 12 3 15 -5 10 -7 -4 -15 -1 -18 8 -3 9 -11
13 -17 9 -6 -4 -8 0 -4 11 6 14 4 15 -14 5 -15 -8 -19 -8 -15 0 4 6 0 11 -9
11 -15 0 -41 48 -31 58 3 2 -4 12 -16 22 -15 11 -18 21 -12 31 8 14 14 46 15
82 0 9 4 15 10 12 5 -4 9 2 9 11 0 16 -2 15 -22 -2 -33 -27 -38 -37 -32 -56 7
-23 -11 -31 -72 -30 -55 0 -58 -3 -57 -45 1 -7 -3 -10 -8 -7 -15 9 -10 -13 6
-26 21 -18 19 -35 -2 -19 -16 12 -17 12 -6 -2 7 -9 9 -20 5 -24 -4 -5 1 -5 10
-2 12 4 15 2 11 -8 -3 -8 -9 -12 -14 -9 -5 3 -9 -3 -9 -13 0 -11 -3 -14 -8 -7
-4 6 -14 3 -26 -10 -18 -18 -18 -19 -1 -13 15 6 16 5 5 -8 -7 -8 -19 -15 -26
-15 -7 0 -11 -6 -8 -13 7 -18 -22 -41 -38 -31 -8 5 -8 1 2 -11 9 -11 10 -16 3
-11 -8 4 -13 2 -13 -4 0 -6 -4 -9 -9 -6 -5 3 -14 -1 -21 -9 -7 -8 -9 -15 -6
-15 4 0 -1 -13 -11 -30 -12 -21 -23 -28 -35 -24 -11 3 -18 0 -18 -7 0 -7 -8
-5 -20 6 -12 10 -19 24 -16 31 3 8 -1 11 -9 8 -8 -3 -21 6 -30 20 -10 14 -22
23 -27 20 -6 -4 -4 4 2 17 10 19 10 22 0 12 -16 -15 -60 22 -61 51 0 12 -3 15
-6 9 -2 -7 -9 -13 -14 -13 -6 0 -8 4 -5 9 4 5 0 12 -6 14 -10 4 -10 6 0 6 10
1 10 4 0 15 -7 8 -17 11 -23 8 -5 -3 -4 2 4 11 12 15 12 17 -2 11 -10 -3 -20
2 -27 16 -6 11 -16 18 -23 15 -7 -3 -5 0 5 6 15 12 14 14 -7 31 -13 10 -29 18
-35 18 -7 0 -10 7 -7 15 4 8 1 17 -5 21 -7 5 -8 2 -3 -6 5 -9 4 -11 -3 -6 -7
4 -12 15 -12 24 0 13 -2 14 -9 4 -7 -11 -10 -10 -15 3 -9 24 -8 27 6 19 7 -4
8 -3 4 4 -4 6 -14 8 -23 5 -12 -5 -15 -2 -10 10 4 11 1 17 -7 17 -8 0 -17 7
-20 16 -6 14 -4 15 11 4 10 -7 3 1 -14 19 -32 30 -44 49 -23 36 6 -3 10 -4 10
-1 0 3 -12 13 -27 21 -17 10 -20 14 -8 11 17 -5 16 -3 -5 14 -14 11 -18 19
-10 17 8 -2 5 1 -7 7 -13 5 -23 14 -23 19 0 4 6 5 13 1 8 -5 8 -2 -2 9 -7 9
-10 17 -6 17 4 0 -4 11 -19 25 -17 16 -26 32 -22 41 3 8 2 12 -4 9 -6 -3 -11
0 -12 7 0 7 -2 18 -2 23 -1 6 -12 25 -24 43 -13 17 -20 36 -17 42 3 5 -2 10
-12 10 -15 0 -16 2 -3 10 13 8 13 10 -2 10 -9 0 -20 5 -24 12 -4 7 -3 8 4 4
17 -10 15 3 -4 21 -10 10 -12 19 -5 26 11 11 3 39 -10 31 -5 -3 -9 2 -9 10 0
9 -6 16 -12 16 -9 0 -8 4 2 10 11 7 11 10 2 10 -7 0 -12 8 -10 18 2 10 -2 16
-11 14 -11 -2 -12 0 -4 10 8 9 7 16 -2 25 -7 6 -15 11 -17 10 -2 -1 0 2 4 7 3
5 2 19 -2 32 -7 17 -6 24 3 24 8 0 8 3 -2 9 -8 5 -10 14 -6 21 5 8 4 11 -3 6
-14 -9 -25 10 -29 53 -3 37 -10 82 -13 91 -1 3 -2 9 -1 13 1 5 -3 6 -9 2 -9
-5 -16 44 -11 82 1 6 -3 14 -9 18 -5 3 -10 15 -10 26 0 10 -4 19 -9 19 -5 0
-10 46 -10 102 -2 132 -2 138 -15 138 -6 0 -4 5 4 10 8 5 10 10 4 10 -8 0 -11
37 -11 123 1 96 4 125 17 135 9 8 9 11 1 6 -10 -5 -11 -1 -7 14 4 12 8 82 9
157 1 114 3 135 15 130 12 -4 13 -3 2 10 -9 11 -9 15 -1 15 7 0 9 5 6 10 -4 6
-1 18 7 27 11 14 11 16 -2 8 -13 -8 -13 -7 -1 8 8 10 11 20 8 23 -3 3 1 23 8
44 7 21 11 41 8 44 -4 3 -1 6 6 6 7 0 11 7 8 15 -4 8 -2 17 3 20 4 3 7 13 6
23 -2 9 1 20 6 23 5 3 9 23 9 45 1 21 8 49 15 61 8 12 14 29 14 37 0 8 6 17
13 19 9 4 9 8 -2 15 -11 8 -10 11 7 16 14 5 19 13 17 26 -2 11 0 20 5 20 5 0
6 7 3 17 -5 12 -3 14 7 8 10 -6 12 -3 7 14 -4 18 -3 20 8 11 10 -9 13 -7 11 7
-4 25 14 76 30 86 7 4 10 15 7 24 -5 12 -3 14 8 8 11 -7 11 -5 -1 10 -9 11
-10 16 -3 11 8 -4 13 -2 13 4 0 6 4 8 10 5 5 -3 7 0 4 8 -3 8 -1 18 5 21 6 4
8 13 5 20 -3 8 6 23 20 34 26 20 36 40 14 26 -7 -4 -8 -3 -4 4 4 7 15 12 24
12 15 0 15 2 2 10 -14 9 -6 15 15 10 6 -1 7 2 3 6 -4 4 -2 14 5 22 10 13 9 14
-3 8 -8 -4 -4 2 10 14 21 19 22 21 5 16 -19 -6 -19 -5 -2 8 9 7 17 19 17 27 0
11 2 11 10 -1 8 -13 10 -12 10 3 0 10 4 16 9 13 5 -4 7 3 4 14 -5 18 4 25 28
22 4 -1 4 8 1 20 -4 16 -2 19 8 13 10 -6 12 -4 7 9 -5 13 -1 19 12 23 11 3 17
11 15 17 -6 15 21 40 35 32 5 -4 7 3 3 16 -3 14 -2 19 6 14 8 -5 12 1 12 14 0
15 5 20 14 17 10 -4 13 0 11 14 -3 17 -1 18 9 10 11 -9 14 -8 12 6 0 10 5 17
12 15 8 -1 11 2 7 8 -3 5 -1 10 5 10 6 0 9 4 6 8 -2 4 0 14 5 22 8 13 10 13
20 0 8 -12 9 -10 4 8 -4 12 -3 22 2 21 21 -4 32 3 38 21 4 11 11 18 16 15 5
-4 9 1 9 9 0 9 5 16 11 16 5 0 7 5 4 10 -3 6 3 10 15 10 13 0 19 4 14 11 -3 6
6 3 21 -7 15 -10 23 -20 16 -22 -12 -4 -5 -22 9 -22 5 0 7 13 5 29 -4 28 -2
30 28 25 97 -15 107 -15 107 -2 0 9 3 10 8 2 11 -17 61 -24 55 -8 -4 12 -11
14 -60 15 -13 0 -23 3 -23 7 0 4 -26 7 -58 6 -48 0 -58 2 -59 17 -1 9 8 25 19
36 15 12 19 13 14 3 -4 -8 0 -6 9 5 9 11 21 19 26 17 6 -1 8 2 4 8 -3 5 1 13
9 16 9 3 13 11 9 18 -4 6 2 4 12 -4 11 -9 16 -10 11 -2 -8 14 18 45 29 34 3
-4 11 1 16 11 6 9 18 17 27 17 15 0 15 2 2 11 -12 9 -10 10 8 6 13 -3 21 -3
18 0 -8 8 25 32 45 33 15 0 90 65 83 72 -2 2 9 5 23 6 14 1 32 10 39 20 7 9
14 14 14 10 0 -5 9 1 20 12 12 12 25 18 31 15 5 -4 8 -1 7 7 -2 7 5 12 14 12
10 -1 15 3 11 9 -4 6 0 8 11 4 10 -4 19 -1 22 8 4 8 10 15 16 15 5 0 6 -6 3
-12 -4 -7 0 -5 8 4 8 10 17 15 20 11 4 -3 7 -1 7 6 0 8 8 11 19 8 15 -3 18 -1
14 11 -4 9 -2 13 4 9 14 -9 43 2 43 15 0 5 -6 6 -12 2 -10 -5 -10 -3 0 7 11
12 14 12 22 -1 8 -13 10 -13 15 1 3 8 17 14 33 13 18 -1 31 6 39 20 7 12 12
16 13 10 0 -6 7 -11 15 -11 8 0 12 4 9 9 -5 7 20 12 54 11 7 -1 11 5 8 12 -4
10 5 13 34 12 22 -2 41 1 42 5 2 4 13 9 25 11 12 2 26 6 29 10 12 12 36 8 28
-5 -4 -7 -3 -8 4 -4 6 4 8 14 5 23 -4 10 -2 14 5 9 6 -3 14 -2 17 4 4 6 15 8
25 5 10 -3 21 -2 24 4 3 5 24 8 45 7 22 0 39 3 38 8 -1 4 5 10 14 11 9 2 27 6
39 10 17 5 21 4 16 -6 -5 -9 -2 -8 6 1 9 11 34 16 83 17 79 1 97 4 107 18 5 6
8 5 8 -4 0 -9 4 -10 13 -4 6 5 56 9 110 8 53 0 97 3 97 7 0 4 -132 8 -292 8
-161 0 -287 -4 -280 -9z m1067 -461 c3 -5 1 -10 -4 -10 -6 0 -11 5 -11 10 0 6
2 10 4 10 3 0 8 -4 11 -10z m211 -254 c1 -15 -3 -23 -12 -22 -18 3 -31 16 -15
16 7 0 10 4 7 9 -4 5 0 12 6 14 7 3 13 6 13 6 0 1 1 -10 1 -23z m-473 -44 c68
-50 117 -97 117 -112 0 -5 5 -10 10 -10 6 0 14 -8 17 -17 4 -10 21 -39 39 -64
26 -38 46 -77 49 -99 0 -3 3 -9 6 -15 9 -14 5 -203 -4 -211 -7 -8 -8 -1 -9 64
-1 20 -8 42 -16 48 -8 6 -16 28 -17 50 -2 21 -8 53 -15 69 -8 17 -14 33 -14
37 -1 3 -4 9 -8 13 -7 8 -4 -18 13 -91 7 -28 10 -57 7 -65 -5 -13 -72 -15
-452 -14 -245 0 -446 3 -446 8 0 4 0 19 0 33 0 14 4 23 10 19 6 -4 8 -10 5
-15 -3 -5 0 -12 6 -16 8 -4 9 -3 5 4 -4 7 -3 12 1 12 5 0 9 8 9 18 1 9 4 32 8
50 4 19 2 32 -4 32 -5 0 -10 -6 -10 -13 0 -7 -6 -22 -14 -33 -13 -17 -13 -14
-6 28 10 54 46 129 66 141 8 4 14 13 14 20 0 16 61 77 77 77 7 0 13 4 13 8 0
13 107 74 143 81 17 4 102 7 187 6 l155 -1 58 -42z m1194 -127 c0 -94 -2 -107
-19 -116 -11 -6 -22 -8 -25 -6 -5 5 -62 -23 -110 -53 -45 -29 -40 -11 37 125
40 71 55 95 63 95 4 0 7 6 7 13 0 7 9 18 20 25 12 7 18 18 14 24 -4 6 -3 8 3
5 6 -4 10 -52 10 -112z m105 37 c4 -2 8 -8 8 -14 0 -5 12 -25 26 -44 15 -19
23 -34 20 -34 -4 0 1 -12 12 -27 25 -37 53 -95 48 -100 -5 -6 -40 13 -58 30
-7 7 -38 20 -68 28 l-55 14 -1 105 c0 58 1 109 4 113 2 5 16 -9 30 -30 14 -21
29 -39 34 -41z m-107 -447 l0 -260 -23 -1 c-12 -1 -25 3 -28 7 -3 5 -14 9 -24
9 -10 0 -20 4 -22 9 -1 5 -19 18 -38 28 -54 30 -102 121 -105 197 -4 107 50
202 139 245 107 52 101 66 101 -234z m151 234 c95 -45 154 -174 131 -286 -14
-68 -54 -128 -109 -163 -54 -35 -65 -40 -108 -43 l-25 -2 -1 255 c-1 140 1
258 3 263 6 11 58 -1 109 -24z m594 -109 c0 -5 -2 -10 -4 -10 -3 0 -8 5 -11
10 -3 6 -1 10 4 10 6 0 11 -4 11 -10z m-1732 -121 c0 -57 3 -94 11 -103 16
-19 15 -57 -4 -246 -3 -36 -8 -92 -10 -125 -2 -33 -5 -60 -5 -60 -1 0 -3 -13
-4 -30 -9 -96 -19 -175 -28 -215 -6 -25 -12 -61 -14 -80 -7 -57 -54 -169 -81
-191 -9 -8 -10 -16 -3 -23 5 -7 12 -100 16 -207 9 -288 9 -289 -8 -289 -7 0
-38 30 -68 67 -30 37 -70 80 -87 97 -18 16 -33 35 -33 41 0 7 -16 26 -35 44
-42 38 -44 47 -7 53 36 5 52 0 52 -16 0 -7 16 -27 35 -46 19 -19 35 -39 35
-44 0 -6 15 -27 33 -47 17 -20 37 -45 43 -55 9 -15 11 13 7 121 -2 77 -4 150
-4 162 1 29 -14 37 -33 18 -8 -9 -17 -11 -21 -6 -3 6 6 18 20 27 14 9 33 30
41 45 16 32 11 37 -12 14 -9 -8 -12 -15 -9 -15 4 0 -19 -25 -52 -56 -60 -58
-106 -88 -117 -77 -3 4 -6 2 -6 -3 0 -9 -38 -16 -85 -16 -39 0 -85 6 -85 12 0
3 -12 7 -26 8 -25 2 -92 45 -108 70 -4 8 -17 21 -27 30 -10 9 -19 21 -19 27 0
7 -11 22 -25 35 l-25 23 0 -21 c0 -12 -5 -22 -11 -22 -6 0 -9 7 -5 15 3 8 2
15 -3 15 -13 0 -47 34 -55 55 -6 15 -9 17 -16 6 -5 -9 0 -22 17 -37 14 -13 29
-24 34 -24 13 0 4 -29 -18 -52 -11 -13 -33 -45 -49 -72 -23 -40 -25 -48 -10
-43 15 6 15 3 -4 -31 -21 -37 -57 -68 -67 -58 -3 2 -1 20 3 38 7 32 8 32 14 8
l6 -25 14 25 c19 32 20 90 2 90 -9 0 -11 7 -7 20 3 11 8 32 11 46 3 15 10 36
15 46 11 21 14 29 31 106 7 28 16 52 20 52 14 0 9 28 -6 33 -9 4 -12 0 -9 -11
3 -13 -13 -23 -69 -45 -40 -15 -79 -27 -85 -27 -22 0 -15 24 17 58 16 18 42
49 57 70 42 56 63 67 63 33 0 -11 4 -22 9 -26 6 -3 8 4 5 17 -13 67 -16 87
-19 128 -2 25 -6 56 -9 70 -2 14 -8 57 -11 95 -4 39 -8 90 -11 115 -2 25 -6
63 -9 85 -3 22 -8 77 -11 122 -6 71 -4 84 10 89 9 3 14 10 11 15 -7 10 -16 87
-18 149 l-2 45 170 2 c94 1 179 0 190 -2 19 -4 20 -11 17 -112 -4 -111 -7
-127 -21 -104 -7 11 -11 10 -19 -5 -11 -22 3 -68 18 -59 6 4 8 11 5 16 -4 5
-1 9 4 9 6 0 11 -6 12 -12 1 -24 9 -62 14 -67 3 -2 11 1 18 8 8 8 12 58 12
169 l0 157 228 1 c125 1 230 4 234 7 3 4 12 2 19 -4 10 -8 13 -37 12 -100z
m1311 -86 c6 -46 4 -235 -2 -283 -11 -83 -37 -193 -44 -186 -2 2 -7 19 -10 38
-3 18 -9 41 -14 51 -5 9 -7 17 -4 17 23 0 -63 103 -130 156 -11 8 -15 13 -8
10 6 -4 40 15 75 41 50 38 70 62 97 116 19 37 35 67 36 67 0 0 2 -12 4 -27z
m-568 -35 c31 -62 145 -168 172 -160 4 1 7 -3 7 -8 0 -5 -4 -10 -10 -10 -11 0
-110 -93 -110 -103 0 -5 -9 -28 -20 -51 -10 -24 -21 -62 -22 -84 -4 -53 -12
-46 -28 25 -26 116 -36 433 -14 433 2 0 13 -19 25 -42z m245 -449 c1 -292 5
-280 -77 -236 -53 28 -110 102 -117 153 -12 93 -2 202 22 232 47 60 150 131
166 116 3 -3 5 -122 6 -265z m104 248 c32 -15 110 -88 110 -104 0 -6 5 -13 10
-15 6 -2 12 -13 13 -26 0 -12 4 -22 7 -22 4 0 6 -35 5 -78 -2 -89 -23 -144
-79 -202 -38 -41 -113 -71 -125 -52 -6 10 -8 510 -2 519 2 3 31 -7 61 -20z
m-270 -445 c0 -13 105 -82 137 -91 l28 -7 1 -267 c0 -146 -3 -264 -8 -261 -5
3 -6 8 -4 12 2 4 -12 66 -30 137 -19 72 -36 137 -37 145 -2 9 -6 20 -9 25 -3
6 -9 28 -12 49 -7 40 -15 67 -61 190 -29 79 -28 76 -15 76 6 0 10 -4 10 -8z
m369 -54 c-11 -29 -23 -60 -26 -68 -8 -20 -13 -39 -18 -70 -2 -14 -22 -86 -45
-160 -22 -74 -42 -151 -44 -170 -6 -60 -18 -110 -25 -110 -12 0 -7 535 4 536
6 0 23 6 38 12 16 7 31 12 35 12 4 1 25 16 47 35 22 19 43 35 47 35 3 0 -3
-24 -13 -52z m-1079 -93 c11 -16 20 -38 20 -47 0 -16 -3 -16 -45 2 -25 11 -45
17 -45 14 0 -3 -10 2 -22 10 -33 23 -37 20 -31 -20 5 -33 4 -36 -14 -30 -15 5
-22 1 -26 -13 -3 -13 -1 -18 9 -14 14 5 39 -45 50 -102 3 -19 10 -35 15 -35 4
0 6 -10 4 -21 -5 -24 -15 -38 -15 -21 0 6 -10 21 -23 34 -37 38 -57 89 -45
113 11 20 11 20 -11 1 -17 -15 -19 -22 -9 -34 10 -12 9 -14 -5 -11 -10 2 -17
8 -17 13 1 5 -4 13 -12 18 -10 8 -10 11 0 15 6 2 10 9 6 14 -3 5 -1 9 4 9 5 0
15 14 22 30 7 17 17 30 22 30 5 0 7 4 4 8 -3 5 5 35 18 68 13 32 26 68 30 79
7 18 12 15 52 -30 25 -28 54 -63 64 -80z m-798 -237 c34 -32 36 -42 4 -34
l-25 6 -3 -142 c-2 -79 -2 -153 0 -164 l3 -22 25 23 c13 12 24 26 24 31 0 5
18 29 40 53 22 24 40 49 40 55 0 15 67 76 85 76 7 0 21 -3 29 -6 17 -6 -6 -38
-108 -148 -20 -22 -36 -44 -36 -48 0 -4 -6 -8 -12 -8 -7 -1 -28 -22 -47 -48
-22 -32 -42 -49 -57 -50 -28 -2 -27 -6 -24 143 1 55 3 147 4 206 2 100 13 153
24 119 3 -8 18 -27 34 -42z m225 -660 c16 -16 17 -51 17 -430 -1 -350 -3 -413
-15 -412 -8 1 -27 5 -44 9 -16 4 -144 8 -282 9 -139 0 -253 3 -254 6 -3 21 -4
800 -1 817 l4 22 279 -2 c249 -2 280 -4 296 -19z m640 9 c4 -6 5 -54 4 -106
-6 -175 -6 -560 0 -638 3 -43 4 -80 2 -82 -2 -2 -121 -5 -265 -7 -158 -1 -277
-6 -298 -13 -19 -6 -36 -11 -37 -11 -1 0 -2 189 0 421 2 399 3 421 21 434 24
18 562 20 573 2z m886 -26 c5 -1 7 -18 4 -38 -2 -21 0 -48 4 -60 5 -12 4 -25
0 -28 -14 -8 -1 -46 13 -38 6 3 7 2 3 -3 -5 -5 -36 -10 -68 -10 -52 -2 -59 0
-53 15 4 9 8 48 9 86 2 39 3 73 4 76 1 6 16 6 84 0z m37 -218 c0 -8 -4 -11
-10 -8 -5 3 -11 0 -11 -7 -1 -7 -3 -20 -4 -28 -1 -8 -3 -26 -4 -40 -1 -23 -5
-25 -48 -24 l-48 1 -2 44 c-2 25 -9 49 -18 55 -8 6 -15 13 -15 16 0 3 36 5 80
5 64 1 80 -2 80 -14z m-35 -143 c6 -5 10 -53 9 -111 -1 -90 2 -105 18 -119 17
-14 12 -15 -66 -15 -48 0 -86 1 -86 3 0 1 8 10 19 21 16 16 18 31 14 117 -3
80 0 101 12 110 15 11 62 8 80 -6z m35 -268 c0 -3 -7 -10 -15 -16 -8 -6 -16
-22 -18 -36 -3 -21 -9 -25 -45 -26 -29 0 -42 3 -43 13 -1 7 -3 18 -4 23 -1 6
-3 15 -4 20 0 6 -6 9 -12 8 -6 -2 -14 2 -16 9 -3 9 17 12 76 11 45 0 81 -3 81
-6z m-3470 -357 c7 -9 8 -15 2 -15 -5 0 -12 7 -16 15 -3 8 -4 15 -2 15 2 0 9
-7 16 -15z m650 -85 c0 -5 8 -10 17 -10 9 0 13 -3 10 -7 -9 -8 23 -32 43 -33
9 0 23 -8 32 -17 25 -27 46 -43 56 -43 5 0 15 -7 22 -15 6 -8 15 -14 18 -13 8
2 74 -31 82 -41 5 -6 29 -18 90 -44 19 -8 60 -26 90 -40 71 -32 91 -39 115
-44 11 -2 40 -11 65 -19 48 -17 69 -24 73 -23 1 0 14 -4 30 -10 33 -13 69 -21
117 -27 19 -2 49 -6 65 -9 231 -39 508 -38 720 4 27 5 53 7 56 5 4 -2 47 7 95
21 84 24 111 33 159 51 11 4 25 8 30 9 6 1 12 3 15 4 3 2 12 4 20 6 9 1 52 20
95 41 44 21 86 37 93 35 6 -1 12 3 12 9 0 6 4 9 9 5 5 -3 16 1 23 8 8 8 43 29
78 48 36 19 67 37 70 40 12 14 100 69 109 69 6 0 11 4 11 10 0 5 14 17 31 26
42 21 114 13 147 -18 21 -20 102 -133 102 -143 0 -2 11 -16 24 -30 31 -34 88
-140 60 -112 -4 4 -21 -6 -39 -21 -18 -15 -44 -35 -58 -45 -104 -75 -152 -107
-158 -107 -4 0 -35 -18 -69 -41 -34 -22 -70 -42 -82 -44 -11 -2 -25 -8 -32
-14 -23 -19 -124 -69 -129 -65 -3 3 -28 -6 -56 -20 -28 -14 -57 -26 -65 -26
-8 0 -16 -4 -18 -8 -1 -5 -41 -19 -88 -32 -47 -12 -125 -33 -175 -46 -49 -14
-103 -27 -120 -29 -16 -3 -43 -8 -59 -11 -16 -4 -56 -8 -90 -9 -33 -2 -88 -6
-121 -10 -81 -10 -313 -10 -400 -1 -38 5 -97 10 -130 12 -33 1 -71 5 -85 8
-13 3 -40 8 -60 11 -19 3 -84 19 -145 36 -60 16 -122 32 -136 34 -15 2 -64 18
-110 36 -46 19 -86 33 -89 34 -3 0 -11 4 -17 8 -7 5 -22 10 -32 12 -23 4 -134
57 -141 67 -3 4 -17 10 -30 12 -14 2 -27 5 -30 6 -3 2 -8 2 -12 1 -5 0 -8 3
-8 8 0 8 -107 75 -122 76 -3 0 -21 11 -40 25 -18 13 -58 41 -88 62 -30 20 -64
45 -75 55 -11 10 -36 29 -56 42 -33 22 -36 27 -26 48 5 13 14 23 18 23 5 0 19
15 31 33 21 30 36 50 117 149 13 17 34 34 45 38 30 12 96 12 96 0z m-290 -140
c0 -5 -5 -10 -11 -10 -5 0 -7 5 -4 10 3 6 8 10 11 10 2 0 4 -4 4 -10z m-59
-317 c13 -16 12 -17 -3 -4 -10 7 -18 15 -18 17 0 8 8 3 21 -13z"/>
<path d="M2348 4352 c-21 -9 -38 -23 -38 -31 0 -10 3 -11 13 -2 8 6 16 9 18 6
3 -2 18 7 34 20 35 28 25 31 -27 7z"/>
<path d="M2615 4350 c-3 -6 2 -13 12 -17 10 -3 21 -8 26 -10 4 -2 7 0 7 6 0
16 -38 33 -45 21z"/>
<path d="M2677 4319 c7 -7 15 -10 18 -7 3 3 -2 9 -12 12 -14 6 -15 5 -6 -5z"/>
<path d="M2270 4306 c0 -2 7 -6 15 -10 8 -3 15 -1 15 4 0 6 -7 10 -15 10 -8 0
-15 -2 -15 -4z"/>
<path d="M2720 4296 c0 -2 7 -9 15 -16 12 -10 15 -10 15 4 0 9 -7 16 -15 16
-8 0 -15 -2 -15 -4z"/>
<path d="M2229 4273 c-13 -15 -12 -15 9 -4 23 12 28 21 13 21 -5 0 -15 -7 -22
-17z"/>
<path d="M2770 4273 c0 -5 13 -17 28 -27 l27 -19 -24 26 c-26 28 -31 32 -31
20z"/>
<path d="M2185 4238 l-20 -21 23 12 c12 6 22 16 22 21 0 13 -2 12 -25 -12z"/>
<path d="M2139 4200 c-14 -15 -30 -47 -30 -60 0 -3 -8 -13 -16 -22 -9 -10 -13
-18 -9 -18 12 0 45 43 46 59 0 8 7 23 17 33 20 23 14 31 -8 8z"/>
<path d="M2865 4190 c3 -5 8 -10 11 -10 2 0 4 5 4 10 0 6 -5 10 -11 10 -5 0
-7 -4 -4 -10z"/>
<path d="M2886 4155 c4 -8 11 -15 16 -15 6 0 5 6 -2 15 -7 8 -14 15 -16 15 -2
0 -1 -7 2 -15z"/>
<path d="M2599 3917 c-1 -1 -2 -67 -4 -147 -2 -144 10 -227 26 -184 13 34 6
323 -8 329 -7 2 -14 3 -14 2z"/>
<path d="M2699 3717 c-13 -36 -6 -69 14 -62 17 7 17 53 0 59 -7 3 -13 4 -14 3z"/>
<path d="M2234 3681 c1 -43 16 -50 16 -8 0 21 -4 37 -8 37 -5 0 -8 -13 -8 -29z"/>
<path d="M2350 3674 c0 -41 8 -41 16 -1 2 14 0 29 -6 32 -6 4 -10 -9 -10 -31z"/>
<path d="M2737 3703 c-2 -5 -2 -14 -1 -20 1 -7 2 -17 3 -23 3 -24 16 -7 16 20
0 28 -9 40 -18 23z"/>
<path d="M2790 3679 c0 -18 3 -29 7 -25 11 11 13 45 3 51 -6 4 -10 -7 -10 -26z"/>
<path d="M2299 3693 c0 -5 -2 -16 -4 -25 -2 -10 0 -20 4 -22 3 -2 7 9 7 25 1
16 0 29 -2 29 -2 0 -4 -3 -5 -7z"/>
<path d="M2650 3669 c0 -5 5 -7 10 -4 6 3 10 8 10 11 0 2 -4 4 -10 4 -5 0 -10
-5 -10 -11z"/>
<path d="M2180 3509 c-31 -9 -25 -10 53 -11 34 0 74 -6 88 -14 15 -7 29 -10
33 -7 3 4 6 1 6 -6 0 -8 7 -11 15 -7 8 3 15 1 15 -3 0 -5 7 -11 15 -15 31 -12
13 10 -31 38 -37 23 -59 30 -108 31 -33 1 -72 -2 -86 -6z"/>
<path d="M2746 3513 c-4 -4 -31 -11 -52 -12 -11 -1 -82 -61 -72 -61 4 0 30 12
60 27 42 21 68 27 125 27 40 1 73 4 73 9 0 4 -12 7 -27 8 -16 0 -45 2 -65 3
-21 2 -40 1 -42 -1z"/>
<path d="M2772 3467 c-32 -6 -55 -21 -92 -58 -48 -49 -49 -50 -36 -82 9 -22
30 -41 65 -60 29 -16 55 -26 59 -23 3 4 -4 9 -16 13 -12 3 -22 9 -22 14 0 5
-6 9 -13 9 -8 0 -19 11 -25 25 l-12 25 38 -19 c43 -22 91 -21 127 3 29 19 54
63 49 89 -4 26 -34 57 -55 57 -9 0 -19 4 -21 8 -1 4 -22 4 -46 -1z"/>
<path d="M2203 3458 c-77 -38 -28 -159 67 -163 22 -1 43 2 46 7 7 12 44 10 44
-2 0 -6 -11 -15 -24 -19 -13 -5 -26 -16 -29 -24 -12 -31 74 30 93 66 17 31 17
37 5 47 -8 7 -15 17 -15 22 0 26 -83 74 -130 76 -19 1 -45 -4 -57 -10z"/>
<path d="M2435 3151 c6 -19 -20 -55 -33 -47 -4 2 -16 -6 -27 -17 -21 -21 -18
-20 28 3 23 11 32 11 48 2 17 -11 19 -9 20 10 2 36 -2 52 -14 60 -20 13 -29 9
-22 -11z"/>
<path d="M2615 3141 c-7 -34 2 -61 15 -41 10 16 57 2 63 -19 2 -10 0 -26 -5
-35 -6 -12 -5 -16 6 -16 16 0 24 25 18 51 -2 9 -18 22 -35 30 -18 8 -32 19
-32 26 0 7 -5 17 -11 23 -9 9 -14 4 -19 -19z"/>
<path d="M2362 3048 c2 -6 10 -14 16 -16 7 -2 10 2 6 12 -7 18 -28 22 -22 4z"/>
<path d="M2410 3029 c0 -5 7 -9 15 -9 9 0 33 -12 54 -26 54 -35 70 -36 115 -3
22 16 48 29 58 29 10 0 18 4 18 9 0 13 -52 0 -82 -20 -33 -24 -42 -24 -92 0
-52 24 -86 32 -86 20z"/>
<path d="M2150 2891 c0 -5 7 -14 15 -21 8 -7 13 -15 11 -19 -2 -3 7 -22 20
-41 13 -19 24 -29 24 -23 0 7 -5 15 -10 18 -6 4 -8 11 -5 16 4 5 2 9 -3 9 -4
0 -14 16 -22 35 -13 32 -30 47 -30 26z"/>
<path d="M2389 2857 c-78 -26 -81 -49 -12 -111 46 -40 51 -43 98 -51 66 -12
127 -5 174 18 53 26 105 86 95 110 -9 24 -110 52 -139 39 -22 -10 -94 -10
-150 1 -16 3 -46 0 -66 -6z m103 -71 c42 -16 52 -17 80 -5 18 8 36 13 41 11 4
-1 7 2 7 6 0 5 12 8 28 6 15 -1 33 -2 40 -3 18 -1 15 -24 -7 -43 -21 -18 -61
-41 -76 -44 -51 -10 -67 -11 -106 -3 -24 6 -50 10 -56 11 -7 1 -13 5 -13 10 0
4 -7 8 -15 8 -17 0 -38 36 -31 55 6 17 48 14 108 -9z"/>
<path d="M2108 2747 c-8 -17 -14 -40 -12 -49 1 -10 -2 -18 -7 -18 -5 0 -9 -7
-9 -15 0 -8 5 -15 10 -15 6 0 9 3 8 8 0 4 1 14 4 22 12 32 27 94 24 97 -1 1
-9 -12 -18 -30z"/>
<path d="M2014 1971 c-12 -13 3 -16 66 -18 59 -1 70 1 69 15 0 11 -2 12 -6 4
-2 -6 -10 -9 -15 -6 -12 8 -107 11 -114 5z"/>
<path d="M2243 1968 c-6 -10 -8 -10 75 -13 48 -1 70 1 63 8 -11 11 -131 15
-138 5z"/>
<path d="M2000 1929 c0 -11 22 -15 65 -13 22 1 53 2 69 3 16 0 26 4 23 7 -9 9
-157 11 -157 3z"/>
<path d="M2233 1928 c-2 -5 6 -9 19 -9 81 -4 121 -3 131 3 14 9 12 9 -76 11
-38 1 -71 -1 -74 -5z"/>
<path d="M2006 1888 c7 -12 44 -10 44 2 0 5 -11 9 -24 8 -14 -1 -22 -6 -20
-10z"/>
<path d="M2060 1892 c0 -11 87 -15 94 -4 3 5 -17 10 -44 11 -28 1 -50 -2 -50
-7z"/>
<path d="M2236 1892 c-3 -5 31 -9 75 -9 43 0 79 4 79 8 0 11 -147 12 -154 1z"/>
<path d="M2010 1850 c0 -6 30 -10 70 -10 40 0 70 4 70 10 0 6 -30 10 -70 10
-40 0 -70 -4 -70 -10z"/>
<path d="M2240 1850 c0 -12 138 -12 145 0 3 4 -29 8 -70 9 -44 1 -75 -3 -75
-9z"/>
<path d="M2000 1818 c0 -5 15 -8 33 -9 17 0 51 -1 75 -2 24 -1 42 2 42 9 0 6
-28 10 -75 10 -41 -1 -75 -4 -75 -8z"/>
<path d="M2233 1818 c-2 -5 13 -8 34 -9 21 0 57 -1 81 -2 23 -1 42 3 42 8 0
12 -149 14 -157 3z"/>
<path d="M2008 1779 c-15 -10 -15 -10 79 -13 50 -1 70 1 62 9 -12 12 -123 15
-141 4z"/>
<path d="M2253 1783 c-7 -3 -13 -8 -13 -11 0 -9 137 -8 146 1 9 8 6 9 -66 12
-30 1 -61 0 -67 -2z"/>
<path d="M2014 1742 c8 -7 76 -8 76 0 0 4 -18 7 -40 6 -22 -1 -38 -3 -36 -6z"/>
<path d="M2245 1742 c2 -3 25 -6 50 -7 24 -1 42 1 39 4 -3 3 -25 6 -50 7 -25
1 -42 -1 -39 -4z"/>
<path d="M2356 1738 c3 -5 10 -6 15 -3 13 9 11 12 -6 12 -8 0 -12 -4 -9 -9z"/>
<path d="M2053 1712 c-29 -2 -53 -7 -53 -11 0 -9 145 -9 155 0 9 9 -41 14
-102 11z"/>
<path d="M2243 1708 c-6 -10 -8 -10 70 -12 37 -2 70 1 73 6 6 9 6 9 -79 11
-33 1 -61 -1 -64 -5z"/>
<path d="M2003 1668 c-2 -5 4 -8 14 -9 10 0 44 -1 76 -2 32 -1 57 2 57 8 0 12
-139 14 -147 3z"/>
<path d="M2005 1590 c-4 -6 18 -10 59 -10 36 0 66 -4 66 -9 0 -5 -27 -7 -60
-6 -40 2 -60 -1 -57 -8 4 -12 122 -16 140 -5 9 6 8 8 -1 8 -9 0 -11 7 -7 20 6
19 2 20 -64 20 -38 0 -73 -4 -76 -10z"/>
<path d="M2240 1590 c0 -5 3 -9 8 -9 26 4 92 -2 92 -9 0 -5 -22 -8 -50 -8 -27
1 -50 -3 -50 -8 0 -11 126 -14 143 -4 9 6 8 8 -3 9 -8 1 -18 1 -22 0 -5 0 -8
4 -8 9 0 6 9 10 21 10 11 0 18 4 15 9 -8 12 -146 14 -146 1z"/>
<path d="M2007 1518 c-16 -10 -15 -10 74 -12 50 -1 75 3 72 10 -4 12 -128 14
-146 2z"/>
<path d="M2244 1518 c-7 -10 -9 -10 69 -12 38 -1 71 2 73 6 6 10 4 10 -74 12
-35 1 -66 -2 -68 -6z"/>
<path d="M2019 1479 c-6 -3 8 -6 30 -7 22 -1 42 2 45 6 5 8 -62 10 -75 1z"/>
<path d="M2116 1482 c-3 -4 4 -9 15 -9 23 -2 25 3 4 10 -8 4 -16 3 -19 -1z"/>
<path d="M2250 1480 c-6 -4 7 -7 30 -8 22 -1 40 0 40 2 0 7 -60 12 -70 6z"/>
<path d="M2330 1480 c0 -5 5 -10 11 -10 5 0 7 5 4 10 -3 6 -8 10 -11 10 -2 0
-4 -4 -4 -10z"/>
<path d="M2004 1445 c2 -5 13 -9 25 -8 11 2 21 -2 21 -7 0 -6 9 -6 24 0 13 5
26 6 30 3 3 -3 17 -2 32 1 43 11 19 19 -61 20 -46 1 -74 -3 -71 -9z"/>
<path d="M2254 1450 c-19 -4 -25 -8 -16 -13 7 -5 21 -5 32 -2 11 4 20 2 20 -4
0 -7 8 -8 23 -3 12 5 35 7 51 6 22 -2 26 0 18 8 -13 13 -79 16 -128 8z"/>
<path d="M2048 1403 c7 -3 16 -2 19 1 4 3 -2 6 -13 5 -11 0 -14 -3 -6 -6z"/>
<path d="M2088 1403 c7 -3 16 -2 19 1 4 3 -2 6 -13 5 -11 0 -14 -3 -6 -6z"/>
<path d="M2248 1403 c7 -3 16 -2 19 1 4 3 -2 6 -13 5 -11 0 -14 -3 -6 -6z"/>
<path d="M2288 1403 c7 -3 16 -2 19 1 4 3 -2 6 -13 5 -11 0 -14 -3 -6 -6z"/>
<path d="M2358 1403 c7 -3 16 -2 19 1 4 3 -2 6 -13 5 -11 0 -14 -3 -6 -6z"/>
<path d="M2000 1371 c0 -5 34 -11 75 -13 55 -2 75 0 75 10 0 8 -22 12 -75 12
-41 0 -75 -4 -75 -9z"/>
<path d="M2235 1370 c3 -5 40 -10 81 -10 43 0 74 4 74 10 0 6 -34 10 -81 10
-51 0 -78 -4 -74 -10z"/>
<path d="M2010 1325 c0 -6 15 -9 40 -7 25 3 40 0 40 -7 0 -6 -12 -10 -27 -10
-45 3 -65 0 -59 -9 6 -9 143 -8 153 1 6 7 -19 11 -44 8 -7 -1 -13 3 -13 10 0
7 10 9 25 7 15 -3 25 -1 25 6 0 8 -24 12 -70 12 -44 0 -70 -4 -70 -11z"/>
<path d="M2240 1328 c0 -4 20 -8 45 -8 25 0 45 -5 45 -10 0 -6 -12 -9 -27 -9
-47 3 -77 -1 -70 -8 10 -10 134 -11 149 -2 10 7 10 9 -2 10 -8 1 -21 1 -27 0
-7 -1 -13 3 -13 9 0 5 12 10 27 10 14 0 23 3 19 8 -11 10 -146 11 -146 0z"/>
<path d="M2004 1259 c-7 -11 17 -15 81 -13 77 2 80 3 71 11 -10 10 -146 11
-152 2z"/>
<path d="M2237 1258 c-15 -9 -10 -10 75 -12 40 -1 69 3 72 9 4 12 -128 15
-147 3z"/>
<path d="M2680 1970 c-22 -7 -23 -8 -6 -15 12 -5 21 -3 27 6 5 8 9 9 9 3 0 -6
20 -10 49 -10 54 1 74 10 41 19 -11 3 -23 1 -26 -4 -3 -5 -10 -7 -15 -3 -16 9
-52 11 -79 4z"/>
<path d="M2920 1972 c-29 -10 -2 -18 60 -18 39 0 70 4 70 8 0 9 3 9 -68 11
-28 1 -57 1 -62 -1z"/>
<path d="M2664 1928 c-7 -12 9 -14 76 -13 36 1 65 5 65 10 0 11 -135 13 -141
3z"/>
<path d="M2903 1928 c-5 -10 -5 -9 80 -11 38 -1 66 2 64 8 -4 11 -137 13 -144
3z"/>
<path d="M2664 1889 c-2 -4 31 -7 75 -7 44 1 77 6 75 10 -7 11 -143 8 -150 -3z"/>
<path d="M2905 1889 c7 -11 145 -9 145 3 0 4 -34 7 -75 7 -46 0 -73 -4 -70
-10z"/>
<path d="M2664 1848 c-4 -5 27 -8 75 -7 45 1 81 6 81 11 0 11 -149 8 -156 -4z"/>
<path d="M2910 1849 c0 -5 32 -9 70 -9 41 0 70 4 70 10 0 6 -28 10 -70 9 -38
-1 -70 -5 -70 -10z"/>
<path d="M2670 1818 c0 -9 8 -10 80 -8 85 2 80 16 -5 16 -41 -1 -75 -4 -75 -8z"/>
<path d="M2904 1818 c-6 -9 -1 -9 81 -9 76 0 79 0 71 8 -10 10 -146 11 -152 1z"/>
<path d="M2663 1775 c2 -5 36 -10 75 -10 43 0 71 4 69 10 -1 6 -34 10 -74 10
-44 0 -72 -4 -70 -10z"/>
<path d="M2911 1782 c-29 -10 -5 -17 52 -16 97 3 101 4 93 11 -7 7 -126 11
-145 5z"/>
<path d="M2736 1738 c3 -4 11 -5 19 -1 21 7 19 12 -4 10 -11 0 -18 -5 -15 -9z"/>
<path d="M2786 1742 c-3 -5 1 -9 9 -9 8 0 12 4 9 9 -3 4 -7 8 -9 8 -2 0 -6 -4
-9 -8z"/>
<path d="M2915 1740 c-2 -3 28 -5 66 -5 38 0 69 3 69 6 0 8 -130 7 -135 -1z"/>
<path d="M2690 1709 c-46 -8 -31 -12 58 -13 39 -1 72 2 72 6 0 4 -8 8 -17 9
-10 0 -31 1 -48 2 -16 1 -46 -1 -65 -4z"/>
<path d="M2912 1699 c18 -10 133 -7 145 4 3 4 -32 7 -78 7 -61 -1 -79 -3 -67
-11z"/>
<path d="M2672 1668 c-16 -6 -16 -7 1 -8 18 -2 81 -2 124 -1 14 1 23 4 19 8
-9 9 -122 10 -144 1z"/>
<path d="M2912 1668 c-13 -5 -12 -7 8 -8 85 -5 130 -4 130 3 0 8 2 8 -68 10
-29 1 -61 -1 -70 -5z"/>
<path d="M2665 1590 c-4 -6 7 -10 24 -10 17 0 31 -4 31 -9 0 -5 -11 -8 -24 -5
-14 2 -28 0 -31 -6 -7 -12 -8 -12 81 -14 70 -1 71 -1 70 24 -1 24 -4 25 -73
27 -40 1 -75 -2 -78 -7z m145 -18 c0 -5 -18 -8 -40 -8 -22 0 -40 4 -40 8 0 4
18 8 40 8 22 0 40 -4 40 -8z"/>
<path d="M2664 1518 c-6 -10 -8 -10 81 -12 46 0 74 3 72 9 -4 12 -146 14 -153
3z"/>
<path d="M2907 1518 c-16 -10 -14 -10 71 -12 45 -1 72 3 72 10 0 12 -125 14
-143 2z"/>
<path d="M2720 1479 l-65 -6 78 0 c42 0 77 1 77 2 0 8 -32 9 -90 4z"/>
<path d="M2924 1480 c-10 -4 15 -7 55 -8 40 -1 72 1 69 3 -7 7 -106 11 -124 5z"/>
<path d="M2667 1448 c-15 -10 -16 -10 76 -13 51 -2 77 1 74 8 -3 11 -133 16
-150 5z"/>
<path d="M2934 1452 c-50 -10 -28 -20 40 -19 42 0 76 4 76 9 0 4 -8 8 -17 9
-10 0 -32 1 -49 2 -17 1 -39 0 -50 -1z"/>
<path d="M2710 1410 c0 -6 7 -10 15 -10 8 0 15 2 15 4 0 2 -7 6 -15 10 -8 3
-15 1 -15 -4z"/>
<path d="M2750 1409 c0 -5 9 -9 20 -9 11 0 20 2 20 4 0 2 -9 6 -20 9 -11 3
-20 1 -20 -4z"/>
<path d="M2668 1403 c6 -2 18 -2 25 0 6 3 1 5 -13 5 -14 0 -19 -2 -12 -5z"/>
<path d="M2918 1403 c6 -2 18 -2 25 0 6 3 1 5 -13 5 -14 0 -19 -2 -12 -5z"/>
<path d="M2973 1403 c9 -2 25 -2 35 0 9 3 1 5 -18 5 -19 0 -27 -2 -17 -5z"/>
<path d="M2786 1382 c-4 -3 -31 -5 -60 -3 -30 1 -57 -2 -61 -8 -4 -8 20 -11
74 -11 45 0 81 4 81 9 0 11 -26 22 -34 13z"/>
<path d="M2947 1382 c-4 -6 -14 -9 -21 -6 -8 3 -17 1 -21 -5 -4 -8 20 -11 76
-11 61 0 80 3 72 11 -6 6 -30 10 -52 7 -22 -2 -42 1 -44 6 -2 6 -6 5 -10 -2z"/>
<path d="M2664 1328 c-3 -4 3 -8 13 -9 10 0 26 -2 36 -4 9 -2 17 0 17 3 0 4
20 6 45 4 25 -2 45 0 45 5 0 11 -149 12 -156 1z"/>
<path d="M2904 1328 c-5 -7 24 -10 101 -10 39 0 45 1 45 10 0 10 -140 10 -146
0z"/>
<path d="M2663 1298 c-5 -10 -2 -10 84 -12 44 -1 72 3 70 9 -4 11 -147 14
-154 3z"/>
<path d="M2907 1298 c-16 -10 -14 -10 71 -12 43 -1 72 3 72 9 0 11 -126 14
-143 3z"/>
<path d="M2678 1262 c-43 -8 -12 -17 55 -16 89 2 92 2 83 12 -8 7 -106 10
-138 4z"/>
<path d="M2915 1260 c-30 -11 -4 -16 63 -14 82 2 87 3 78 11 -8 9 -118 11
-141 3z"/>
<path d="M1160 873 c0 -5 -25 -39 -55 -77 -41 -51 -52 -72 -43 -78 20 -12 24
-10 36 17 8 17 20 25 36 25 l25 0 -14 -47 c-14 -45 -13 -49 5 -68 16 -15 20
-16 22 -5 1 17 5 32 8 40 2 5 5 35 9 83 1 11 10 17 29 18 41 1 63 12 53 27 -6
10 -18 11 -52 3 -61 -14 -61 -15 -39 21 10 17 17 35 14 40 -6 10 -34 11 -34 1z"/>
<path d="M3861 824 c-17 -14 -39 -27 -48 -29 -25 -3 -18 -31 18 -69 16 -17 29
-36 29 -43 0 -15 44 -63 57 -63 6 0 31 16 57 36 34 26 45 39 37 47 -12 12 -61
-6 -61 -23 0 -17 -39 -11 -49 8 -8 14 -4 22 20 37 29 20 35 45 12 52 -6 2 -22
-7 -36 -21 -21 -21 -27 -23 -37 -11 -11 13 -4 62 7 51 9 -9 43 14 43 29 0 26
-18 25 -49 -1z"/>
<path d="M1283 753 c-15 -27 -40 -66 -55 -87 -21 -29 -25 -43 -18 -50 11 -11
35 10 67 60 11 16 12 10 7 -36 -3 -30 -8 -58 -10 -61 -2 -4 5 -14 16 -24 19
-17 20 -16 31 9 7 14 16 26 21 26 4 0 8 6 8 13 0 8 9 25 20 38 11 13 23 29 28
34 17 21 20 43 7 48 -16 7 -40 -18 -54 -56 -13 -34 -31 -35 -25 -1 12 65 11
110 -2 122 -11 10 -18 3 -41 -35z"/>
<path d="M3750 743 c-52 -15 -60 -26 -60 -75 0 -42 5 -53 39 -88 35 -36 43
-40 73 -35 42 8 49 15 55 59 4 32 2 36 -17 36 -17 0 -20 -4 -15 -19 7 -23 -24
-45 -49 -35 -27 10 -59 72 -52 100 6 23 11 26 36 20 16 -3 32 -2 34 3 8 12
-27 39 -44 34z"/>
<path d="M1444 677 c-33 -18 -70 -61 -81 -93 -9 -26 -8 -37 8 -63 26 -43 61
-55 100 -36 16 9 35 24 42 35 15 25 30 26 23 3 -10 -36 -10 -97 0 -100 13 -4
43 22 73 65 28 40 34 37 21 -9 -20 -73 -21 -97 -3 -103 17 -7 38 11 68 59 11
17 32 46 47 66 25 33 27 49 8 49 -13 0 -46 -35 -58 -63 -7 -15 -17 -25 -22
-22 -6 4 -7 11 -4 17 7 11 14 44 17 83 1 13 -5 21 -18 23 -15 2 -30 -10 -54
-43 -32 -44 -53 -56 -33 -18 19 35 23 91 6 97 -9 4 -18 -2 -24 -17 -5 -12 -10
-19 -11 -14 -12 50 -29 75 -57 85 -19 7 -35 6 -48 -1z"/>
<path d="M3622 677 c-10 -11 15 -63 85 -174 5 -8 13 -10 22 -4 11 7 8 18 -15
57 -16 27 -29 51 -30 54 0 7 -45 80 -49 80 -1 0 -7 -6 -13 -13z"/>
<path d="M3582 647 c-7 -8 -9 -16 -7 -19 3 -3 7 -18 9 -34 2 -16 7 -42 12 -59
7 -29 6 -29 -12 -14 -10 9 -31 27 -46 39 -16 13 -28 29 -28 36 0 7 -8 10 -20
7 -11 -3 -20 -9 -20 -13 0 -4 -15 -10 -32 -14 -48 -10 -88 -29 -88 -43 0 -28
73 -171 85 -167 10 4 10 13 2 40 -16 53 2 61 48 20 32 -27 43 -31 57 -23 15
10 14 13 -10 34 -15 13 -31 23 -36 23 -9 0 1 51 14 63 4 5 28 -12 53 -37 65
-64 91 -51 67 33 -5 19 -12 52 -16 75 -8 57 -17 71 -32 53z"/>
<path d="M1783 528 c-8 -11 -58 -139 -66 -171 -3 -12 93 -49 109 -43 22 8 6
31 -31 45 -32 11 -33 14 -24 39 34 87 42 168 12 130z"/>
<path d="M3266 520 c-26 -10 -50 -21 -52 -23 -4 -4 53 -187 60 -194 8 -8 116
41 116 53 0 17 -13 17 -59 4 -39 -11 -36 -12 -45 16 -5 16 1 23 34 38 33 14
39 21 30 31 -8 9 -19 11 -33 6 -65 -22 -86 12 -22 37 50 19 47 16 39 36 -8 20
-7 20 -68 -4z"/>
<path d="M1886 438 c-15 -55 -27 -104 -32 -125 -3 -17 6 -21 52 -29 64 -10 75
-8 68 11 -3 8 -9 14 -12 13 -4 0 -22 3 -39 7 -61 14 -31 59 32 49 32 -5 36 -3
33 13 -2 10 -8 18 -13 18 -29 2 -55 18 -53 33 4 21 19 33 33 24 5 -3 15 -7 20
-8 6 -1 17 -5 26 -9 10 -4 19 0 22 8 4 11 -8 20 -43 31 -73 24 -78 22 -94 -36z"/>
<path d="M3095 460 c-15 -16 -15 -73 -1 -88 4 -3 21 -7 39 -8 18 -1 39 -2 49
-3 10 -1 15 -8 13 -18 -2 -10 -4 -21 -4 -25 -2 -14 -42 -8 -58 7 -16 17 -33
12 -33 -10 0 -22 51 -43 83 -34 15 4 27 4 27 1 1 -11 29 42 30 55 0 27 -45 63
-83 65 -43 2 -54 12 -37 32 12 15 27 16 48 2 19 -11 28 2 16 22 -15 22 -69 24
-89 2z"/>
<path d="M2053 451 c-5 -3 -17 -40 -27 -81 -10 -41 -20 -82 -22 -91 -4 -16 5
-20 79 -35 23 -5 83 58 72 76 -3 6 -2 10 2 10 10 0 10 46 -1 78 -11 33 -78 61
-103 43z"/>
<path d="M2895 428 c-22 -6 -41 -11 -42 -12 -1 -1 2 -18 7 -37 5 -19 12 -47
15 -64 3 -16 8 -37 10 -45 2 -8 4 -23 4 -32 1 -10 8 -18 17 -18 13 0 15 8 10
39 -3 26 -1 41 7 44 14 5 67 -36 67 -52 0 -6 11 -10 24 -9 20 2 23 5 15 20 -5
9 -16 21 -25 26 -16 9 -18 25 -10 86 8 61 -18 75 -99 54z"/>
<path d="M2245 422 c-25 -6 -64 -51 -67 -77 -4 -49 4 -100 17 -108 8 -4 20
-13 27 -21 24 -23 97 0 99 32 5 69 6 67 -30 67 -24 0 -35 -5 -36 -17 -2 -11 3
-15 16 -13 13 3 19 -2 19 -16 0 -27 -55 -27 -70 1 -13 24 -5 90 12 101 21 14
58 10 64 -6 7 -18 34 -20 34 -2 -1 16 -31 53 -50 59 -8 2 -24 2 -35 0z"/>
<path d="M2725 386 c-27 -26 -32 -38 -31 -72 3 -48 32 -104 62 -114 25 -10 80
14 89 38 19 49 16 95 -9 132 -34 52 -69 57 -111 16z"/>
<path d="M2369 397 c-1 -7 -3 -21 -4 -32 -2 -11 -6 -53 -10 -92 -7 -81 -11
-76 70 -75 52 1 55 2 49 17 -4 10 -20 15 -45 15 -36 0 -39 2 -39 29 0 26 3 28
35 26 68 -3 81 28 15 35 -37 4 -45 9 -45 25 0 17 7 20 42 21 80 1 69 29 -14
37 -36 4 -53 2 -54 -6z"/>
<path d="M2569 398 c0 -2 -1 -47 -2 -100 -2 -86 0 -98 15 -98 13 0 18 10 20
43 2 24 8 43 16 43 6 1 20 2 30 3 34 2 21 31 -14 31 -32 0 -48 17 -36 37 4 6
18 11 32 11 42 0 47 1 47 17 0 11 -13 15 -54 15 -29 0 -53 -1 -54 -2z"/>
<path d="M833 4534 c-12 -13 -19 -24 -14 -24 4 0 18 11 31 25 13 14 19 25 14
24 -5 -1 -19 -12 -31 -25z"/>
<path d="M4256 4457 c3 -10 9 -15 12 -12 3 3 0 11 -7 18 -10 9 -11 8 -5 -6z"/>
<path d="M1071 4400 c-1 -20 70 -44 81 -27 7 10 11 4 10 -13 0 -3 17 -15 38
-27 33 -19 39 -20 44 -7 3 8 2 13 -3 9 -5 -3 -16 2 -25 10 -8 9 -19 17 -23 18
-4 1 -6 7 -5 12 2 6 0 7 -4 3 -4 -4 -13 -3 -21 3 -7 6 -13 8 -13 4 0 -4 -7 -2
-15 5 -8 7 -24 10 -34 7 -11 -3 -22 0 -25 7 -2 6 -5 5 -5 -4z"/>
<path d="M4320 4397 c0 -2 15 -16 33 -33 l32 -29 -29 33 c-28 30 -36 37 -36
29z"/>
<path d="M839 4342 c9 -7 10 -12 2 -16 -12 -8 -6 -26 8 -26 14 0 5 44 -10 48
-12 3 -12 2 0 -6z"/>
<path d="M1297 4268 c26 -26 53 -48 60 -48 7 0 12 -3 12 -7 -4 -23 2 -43 11
-38 6 3 10 -1 10 -9 0 -9 8 -24 18 -34 10 -10 17 -23 15 -29 -5 -15 14 -26 22
-13 3 5 1 10 -5 10 -6 0 -9 4 -5 9 3 5 1 12 -5 16 -6 4 -7 11 -4 17 5 7 2 8
-6 3 -10 -6 -12 -4 -7 9 5 11 3 15 -5 10 -8 -5 -9 -2 -5 10 4 9 3 14 -2 11 -9
-5 -27 32 -23 47 1 4 -4 5 -11 3 -20 -8 -39 11 -39 40 0 16 -4 22 -8 15 -6 -9
-9 -9 -13 1 -4 11 -6 11 -6 1 -1 -10 -4 -10 -15 0 -8 7 -12 16 -10 19 2 3 -4
6 -12 6 -9 0 4 -20 33 -49z"/>
<path d="M4415 4290 c-3 -5 -1 -10 4 -10 6 0 11 5 11 10 0 6 -2 10 -4 10 -3 0
-8 -4 -11 -10z"/>
<path d="M837 4276 c-3 -8 0 -17 7 -19 10 -4 12 1 9 14 -6 23 -9 24 -16 5z"/>
<path d="M839 4235 c-1 -3 -1 -14 -1 -25 0 -38 2 -50 10 -50 4 0 7 18 7 40 0
22 -3 40 -7 40 -5 0 -8 -2 -9 -5z"/>
<path d="M4494 4188 c-4 -7 -3 -10 1 -5 5 4 18 -1 29 -10 21 -18 21 -18 2 5
-22 26 -23 26 -32 10z"/>
<path d="M840 4143 c5 -2 6 -12 2 -21 -10 -23 -9 -55 3 -59 6 -2 10 15 9 39
-1 23 -6 43 -13 44 -6 2 -7 0 -1 -3z"/>
<path d="M837 4035 c-4 -8 -3 -15 1 -15 4 0 8 -9 8 -20 0 -11 -4 -20 -9 -20
-4 0 -5 -4 -2 -10 13 -22 22 -8 20 31 -3 45 -10 57 -18 34z"/>
<path d="M1440 4009 c0 -5 6 -7 13 -3 9 5 9 4 0 -6 -7 -7 -8 -22 -3 -39 7 -27
5 -172 -4 -289 -3 -40 -2 -60 5 -57 5 4 8 22 6 41 -3 19 0 37 5 40 4 3 6 10 3
15 -4 5 -2 9 3 9 5 0 8 20 8 45 -1 25 4 45 9 45 6 0 6 3 0 8 -13 9 -13 42 -1
61 6 9 5 12 -1 8 -7 -4 -10 10 -9 38 0 25 4 45 8 45 5 0 8 5 8 11 0 5 -4 7
-10 4 -5 -3 -10 3 -10 14 0 12 -7 21 -15 21 -8 0 -15 -5 -15 -11z"/>
<path d="M4743 3976 c1 -11 9 -21 17 -23 10 -3 11 -2 4 4 -6 4 -14 15 -17 23
-5 11 -6 9 -4 -4z"/>
<path d="M350 3970 c-13 -8 -12 -10 3 -10 9 0 17 5 17 10 0 12 -1 12 -20 0z"/>
<path d="M835 3943 c13 -11 16 -43 3 -43 -5 0 -6 -4 -3 -10 12 -19 21 -10 21
22 -1 19 -7 33 -16 35 -9 3 -11 1 -5 -4z"/>
<path d="M840 3861 c13 -10 13 -11 0 -11 -9 0 -11 -3 -4 -8 6 -4 13 -15 17
-25 5 -15 10 -16 27 -7 11 6 25 8 30 5 6 -4 23 -8 38 -11 15 -3 35 -7 45 -10
11 -3 17 0 17 9 0 11 -21 17 -77 23 -57 7 -78 13 -78 23 0 8 -7 16 -15 18 -13
4 -13 3 0 -6z"/>
<path d="M335 3790 c-3 -6 1 -7 9 -4 18 7 21 14 7 14 -6 0 -13 -4 -16 -10z"/>
<path d="M1078 3762 c17 -17 28 -33 25 -36 -4 -3 -2 -6 4 -6 11 0 12 -5 16
-82 2 -37 -1 -58 -7 -58 -7 0 -8 -3 -1 -8 17 -12 17 -35 0 -28 -9 3 -14 2 -10
-3 7 -12 -5 -42 -15 -36 -5 3 -6 -4 -3 -16 3 -12 1 -24 -6 -28 -6 -4 -14 -21
-17 -37 -3 -16 -10 -32 -16 -35 -7 -4 -5 -9 3 -12 12 -5 12 -6 0 -6 -11 -1
-11 -4 -1 -17 11 -12 11 -15 -1 -12 -10 2 -14 -8 -14 -34 1 -27 -4 -38 -15
-39 -10 0 -11 -2 -2 -6 6 -2 9 -9 6 -15 -12 -19 -11 -88 1 -88 6 0 12 12 13
28 3 53 12 100 36 180 8 29 12 52 8 52 -4 0 0 5 8 10 11 7 12 10 2 10 -10 0
-8 8 6 28 11 15 20 30 21 35 0 4 7 20 15 36 9 17 14 52 13 92 -2 53 -7 72 -32
109 -17 25 -39 46 -49 48 -14 3 -11 -3 12 -26z"/>
<path d="M1429 3581 c-1 -9 -1 -19 0 -23 0 -5 -4 -8 -10 -8 -5 0 -7 -5 -4 -10
4 -6 1 -17 -5 -25 -7 -8 -10 -15 -7 -15 3 0 -2 -19 -12 -42 -39 -91 -46 -118
-32 -118 5 0 15 8 22 17 10 11 10 14 2 9 -7 -4 -13 -2 -13 3 0 6 5 11 11 11 5
0 7 5 4 10 -3 6 0 10 7 10 9 0 9 3 -2 10 -11 7 -11 10 -2 10 7 0 10 5 7 10 -6
9 8 14 28 11 5 -1 6 3 2 9 -3 6 -12 8 -18 4 -7 -3 -4 1 6 9 14 11 15 16 5 20
-11 4 -11 6 0 6 7 1 10 6 7 11 -3 6 -1 10 5 10 6 0 8 5 5 10 -4 6 -1 17 5 25
10 12 10 15 0 15 -9 0 -8 5 3 18 15 16 15 19 2 19 -8 0 -16 -7 -16 -16z"/>
<path d="M1345 3322 c-17 -12 -36 -52 -30 -62 4 -6 3 -10 -2 -10 -10 0 -36
-57 -39 -86 -1 -12 -10 -36 -18 -53 -9 -17 -14 -31 -10 -31 4 0 1 -6 -5 -13
-11 -14 -5 -27 12 -27 6 0 8 3 4 6 -3 3 3 21 14 40 11 20 14 34 8 34 -7 0 -7
6 2 16 8 9 14 24 14 33 0 9 6 15 13 13 8 -1 11 2 7 8 -3 6 -12 8 -18 4 -7 -3
-5 0 4 8 9 7 14 19 11 27 -3 8 0 11 7 7 6 -4 11 -4 10 1 -3 19 2 34 10 29 4
-3 8 5 7 17 -1 12 3 25 8 29 6 4 8 9 5 12 -2 3 -9 2 -14 -2z"/>
<path d="M1017 3131 c-4 -17 -3 -21 5 -13 5 5 8 16 6 23 -3 8 -7 3 -11 -10z"/>
<path d="M1010 3090 c0 -5 5 -10 10 -10 6 0 10 5 10 10 0 6 -4 10 -10 10 -5 0
-10 -4 -10 -10z"/>
<path d="M1004 3040 c1 -16 -3 -30 -8 -30 -8 0 -8 -3 -1 -8 12 -8 13 -41 3
-58 -7 -11 -1 -24 12 -24 4 0 8 26 9 57 1 31 2 59 3 62 2 18 -3 31 -11 31 -5
0 -8 -13 -7 -30z"/>
<path d="M1214 3008 c-4 -18 -8 -35 -9 -38 0 -3 -4 -11 -8 -17 -12 -19 -13
-108 -2 -108 6 0 11 23 13 50 2 28 7 54 13 60 5 5 9 20 9 33 0 13 4 21 9 18 5
-4 8 2 7 11 -5 30 -24 25 -32 -9z"/>
<path d="M1003 2898 c3 -9 3 -19 -1 -22 -9 -10 -10 -46 -1 -46 5 0 6 -7 3 -15
-4 -8 -2 -15 3 -15 12 0 11 96 -1 107 -5 5 -7 1 -3 -9z"/>
<path d="M1187 2815 c-4 -8 -1 -17 6 -21 7 -4 9 -4 5 1 -4 4 -3 14 3 22 7 8 8
13 1 13 -5 0 -12 -7 -15 -15z"/>
<path d="M1003 2778 c4 -10 3 -18 -1 -18 -9 0 -7 -58 2 -67 3 -4 1 -12 -5 -20
-9 -10 -8 -13 2 -13 11 0 14 15 14 59 0 33 -4 63 -9 68 -5 5 -7 1 -3 -9z"/>
<path d="M1173 2757 c-1 -18 -4 -66 -7 -107 -8 -93 -8 -271 0 -325 3 -22 5
-50 5 -62 0 -12 4 -25 9 -28 12 -7 12 -14 11 278 0 125 -3 232 -6 237 -3 4 0
10 6 12 8 3 7 7 -3 15 -11 9 -14 5 -15 -20z"/>
<path d="M1004 2638 c-11 -17 -12 -48 -3 -48 5 0 6 -7 3 -15 -4 -8 -2 -15 3
-15 5 0 9 20 9 45 0 49 -1 51 -12 33z"/>
<path d="M1003 2538 c4 -10 3 -18 -1 -18 -9 0 -7 -58 2 -67 3 -4 1 -12 -5 -20
-9 -10 -8 -13 2 -13 11 0 14 15 14 59 0 33 -4 63 -9 68 -5 5 -7 1 -3 -9z"/>
<path d="M1004 2398 c-11 -17 -13 -48 -3 -48 10 0 6 -34 -6 -42 -6 -5 -6 -8 1
-8 12 0 13 -9 17 -87 1 -22 6 -39 11 -35 5 3 7 -4 4 -16 -4 -13 0 -23 9 -26
10 -4 14 -15 10 -32 -3 -18 -1 -24 9 -20 17 6 17 1 4 -24 -8 -15 -20 -18 -60
-16 -33 2 -48 0 -41 -7 5 -5 7 -16 4 -25 -5 -10 -2 -13 6 -8 8 5 14 1 18 -13
3 -12 9 -21 14 -21 14 0 11 16 -6 30 -8 7 -13 15 -10 19 2 4 66 6 142 6 76 -1
148 2 161 6 14 5 22 5 22 -2 0 -6 4 -7 10 -4 6 4 9 -5 8 -19 -2 -18 -8 -26
-21 -26 -13 0 -17 -5 -14 -14 3 -8 3 -16 -1 -18 -4 -2 -22 -22 -40 -44 -28
-36 -32 -50 -32 -101 0 -46 5 -63 23 -84 42 -47 46 -62 24 -84 -49 -51 -52
-61 -53 -227 l-1 -158 29 -25 c34 -30 38 -31 31 -4 -3 11 -11 18 -17 16 -8 -3
-11 45 -11 169 0 107 3 172 9 171 6 -1 10 7 11 18 0 11 8 28 18 38 14 14 15
22 7 37 -6 11 -7 20 -3 20 4 0 -1 7 -11 15 -11 8 -16 15 -11 15 5 0 0 7 -11
16 -10 8 -14 13 -7 10 6 -4 14 -2 18 4 3 5 0 10 -8 10 -10 0 -13 14 -13 55 1
30 5 55 9 55 5 0 5 5 2 10 -3 6 -2 10 4 10 5 0 11 -3 14 -7 2 -5 2 -2 1 5 -2
6 1 12 7 12 5 0 9 8 7 18 -2 10 2 16 10 14 8 -1 11 2 7 8 -3 5 -1 10 6 10 7 0
9 3 6 7 -4 3 2 12 13 20 12 8 17 20 13 30 -5 11 -3 14 6 8 10 -6 11 -3 2 12
-8 16 -19 20 -56 18 -25 -1 -45 2 -45 7 0 5 -7 17 -16 25 -13 13 -13 18 -2 25
9 7 8 8 -5 4 -10 -3 -21 -6 -23 -6 -3 0 -2 -6 3 -12 19 -32 11 -38 -53 -38
-48 0 -64 4 -64 14 0 7 -7 19 -15 26 -9 7 -13 15 -11 17 3 3 0 17 -6 32 -5 14
-12 34 -14 44 -2 9 -7 27 -10 40 -7 27 -17 121 -17 160 0 30 -2 33 -13 15z
m253 -803 c0 -8 -4 -12 -9 -9 -5 3 -6 10 -3 15 9 13 12 11 12 -6z"/>
<path d="M1189 2213 c-3 -27 -1 -74 5 -90 6 -14 9 -15 16 -3 5 8 5 21 -1 32
-6 10 -7 23 -4 28 3 5 1 11 -5 15 -6 4 -8 11 -5 16 4 5 4 9 1 9 -3 0 -6 -3 -7
-7z"/>
<path d="M1022 1942 c-10 -3 -9 -9 5 -24 10 -11 17 -23 16 -27 -1 -3 6 -4 15
-3 9 2 14 1 10 -3 -3 -3 -2 -20 2 -36 6 -20 5 -29 -3 -29 -8 0 -8 -3 -2 -8 15
-11 12 -65 -5 -80 -13 -12 -13 -13 0 -6 13 7 13 5 1 -9 -7 -9 -17 -14 -22 -11
-5 3 -6 -2 -3 -10 4 -11 0 -16 -12 -16 -11 0 -15 -4 -9 -8 6 -4 10 -17 10 -28
0 -12 5 -23 10 -25 20 -5 37 -30 31 -44 -3 -8 -2 -15 2 -15 4 0 7 -72 7 -160
0 -131 -2 -159 -14 -155 -9 3 -11 0 -7 -10 3 -8 1 -15 -3 -15 -5 0 -12 -7 -15
-16 -4 -10 -2 -13 6 -8 8 5 9 2 5 -9 -3 -9 -3 -16 1 -16 19 3 23 -2 12 -17
-11 -12 -11 -15 1 -12 8 2 13 -3 11 -10 -1 -8 2 -11 9 -6 9 5 10 2 6 -9 -4
-10 -1 -17 6 -17 20 0 19 40 -1 41 -9 0 -12 3 -5 5 7 3 2 14 -13 31 -29 32
-20 48 34 56 85 14 77 -3 77 163 0 82 -1 154 -3 161 -2 6 -20 11 -40 11 -31 0
-43 7 -74 43 -36 42 -38 59 -6 65 7 2 36 11 63 22 l50 18 -2 59 c-3 66 -12 81
-54 90 -16 4 -38 18 -49 32 -11 14 -20 22 -21 17 -1 -5 -4 0 -7 12 -4 11 -13
19 -20 16z"/>
<path d="M3650 1150 c0 -5 5 -10 11 -10 5 0 7 5 4 10 -3 6 -8 10 -11 10 -2 0
-4 -4 -4 -10z"/>
<path d="M4605 1030 c-3 -6 1 -7 9 -4 18 7 21 14 7 14 -6 0 -13 -4 -16 -10z"/>
<path d="M726 858 c3 -5 10 -6 15 -3 13 9 11 12 -6 12 -8 0 -12 -4 -9 -9z"/>
<path d="M670 826 c0 -2 8 -10 18 -17 15 -13 16 -12 3 4 -13 16 -21 21 -21 13z"/>
<path d="M845 751 c-3 -5 -2 -12 3 -15 5 -3 9 1 9 9 0 17 -3 19 -12 6z"/>
<path d="M820 526 c0 -2 7 -7 16 -10 8 -3 12 -2 9 4 -6 10 -25 14 -25 6z"/>
</g>
</svg>
